<svg config-used="{:r 1.5999999999999994, :y-res 1200, :n 7, :x-res 1600, :cx 0.5, :id &quot;spec_generated_900&quot;, :cy 0.5, :strokes [{:color &quot;#c6f&quot;, :opacity 0.006439208984375, :width 3.2578723676124355E-5} {:color &quot;#4E4bb4&quot;, :opacity 0.004241943359375, :width 0.0016180872917175293} {:color &quot;#d6Be5c&quot;, :opacity 5.492117634275928E-5} {:color &quot;#4DC&quot;, :opacity 0.008918995488784276, :width 0.25} {:color &quot;#C62&quot;, :opacity 0.05573816504329443, :width 0.11497235298156738} {:color &quot;#6Ef7Eb&quot;, :opacity 0.25} {:color &quot;#DF3D3b&quot;, :opacity 0.6768089630641043, :width 0.2270926535129547} {:color &quot;#df4&quot;, :opacity 0.013580322265625, :width 0.1533203125} {:color &quot;#01A&quot;, :opacity 0.0046813590452075005} {:color &quot;#FE5&quot;, :opacity 0.38947105407714844} {:color &quot;#f2C&quot;, :opacity 0.010186852421611547, :width 2.812237203057963E-10} {:color &quot;#9F0&quot;, :opacity 0.06033864617347717} {:color &quot;#b6d&quot;, :opacity 4.57763671875E-5} {:color &quot;#3c780f&quot;, :opacity 0.01606226664807764} {:color &quot;#A4d&quot;, :opacity 0.08055810630321503} {:color &quot;#2E1&quot;, :opacity 0.010141685605049133} {:color &quot;#acd&quot;, :opacity 0.43848180770874023} {:color &quot;#29D&quot;, :opacity 0.06129264831542969, :width 0.007293701171875} {:color &quot;#16c&quot;, :opacity 0.0} {:color &quot;#399&quot;, :opacity 0.7509765625} {:color &quot;#Bf5630&quot;, :opacity 0.99383544921875} {:color &quot;#501&quot;, :opacity 4.944056272506714E-4} {:color &quot;#2e4d70&quot;, :opacity 1.2384590763758752E-4, :width 0.4375} {:color &quot;#baD&quot;, :opacity 0.013671875} {:color &quot;#F8ff61&quot;, :opacity 0.25, :width 2.155853271484375} {:color &quot;#f02&quot;, :opacity 0.0743218440329656, :width 0.010330963079468347} {:color &quot;#A67ef4&quot;, :opacity -0.0, :width 2.237304590835265E-5} {:color &quot;#caA&quot;, :opacity 0.04484367370605469, :width 0.05521549942204729} {:color &quot;#D0eBAf&quot;, :opacity 1.0} {:color &quot;#a344c1&quot;, :opacity 0.21144843101501465} {:color &quot;#CD136f&quot;, :opacity 3.549375105649233E-5, :width 0.00592041015625} {:color &quot;#A81&quot;, :opacity -0.0} {:color &quot;#de7&quot;, :opacity 0.01665246346965432} {:color &quot;#FbF&quot;, :opacity 2.5614708306420653E-5} {:color &quot;#2C3&quot;, :opacity 0.012766838073730469, :width 5.7674730783219275E-5} {:color &quot;#AAf&quot;, :opacity 0.03109095513354987} {:color &quot;#cC7&quot;, :opacity 0.001579400912305573, :width 0.8663032054901123} {:color &quot;#EeF5AA&quot;, :opacity 4.326948245536588E-8, :width 0.0361328125} {:color &quot;#7FEcEA&quot;, :opacity 7.932540029287338E-7} {:color &quot;#fac&quot;, :opacity 1.9788742065429688E-5, :width 0.24073116050567478} {:color &quot;#de7&quot;, :opacity 0.18355178833007812, :width 0.0015561103646177799} {:color &quot;#52edfC&quot;, :opacity 0.0112762451171875} {:color &quot;#edc423&quot;, :opacity 0.21875, :width 0.020784812659258023} {:color &quot;#d90&quot;, :opacity 2.444573516413584E-4, :width 1.5} {:color &quot;#E91&quot;, :opacity 0.447188138961792, :width 0.34375} {:color &quot;#c3CC85&quot;, :opacity 0.0} {:color &quot;#2Cc90c&quot;, :opacity 0.3125} {:color &quot;#55a&quot;, :opacity 0.09765625} {:color &quot;#A9B&quot;, :opacity 0.1871953010559082, :width 0.013050079345703125} {:color &quot;#2CC9dd&quot;, :opacity -0.0, :width 0.078125} {:color &quot;#c12&quot;, :opacity 0.03904162719845772, :width 0.005842316837515682} {:color &quot;#D6a&quot;, :opacity 0.2436370849609375} {:color &quot;#CBeff3&quot;, :opacity 2.2249828043996445E-5} {:color &quot;#986&quot;, :opacity 0.19907230138778687} {:color &quot;#533bAA&quot;, :opacity 3.2138824462890625E-4} {:color &quot;#11b378&quot;, :opacity 0.06391334533691406, :width 0.10024020820856094} {:color &quot;#9E9&quot;, :opacity 0.010422945022583008, :width 0.006011949031744734} {:color &quot;#48C272&quot;, :opacity 0.00146484375} {:color &quot;#6A8&quot;, :opacity 0.11313629150390625, :width 1.135938286781311} {:color &quot;#27A&quot;, :opacity 2.2484522155252762E-7} {:color &quot;#B68&quot;, :opacity 7.247528733406172E-9} {:color &quot;#75FBfc&quot;, :opacity 0.003769397735595703, :width 0.2140350341796875} {:color &quot;#9E3&quot;, :opacity 9.648799896240234E-4, :width 0.8424606323242188} {:color &quot;#4B214F&quot;, :opacity 9.1552734375E-4} {:color &quot;#5Dd&quot;, :opacity 0.0, :width 1.5949134826660156} {:color &quot;#C8Fd9f&quot;, :opacity 0.0057899868643289665, :width 0.24757084250450134} {:color &quot;#3A79FC&quot;, :opacity 0.1162109375} {:color &quot;#6DC&quot;, :opacity 8.107652593025705E-4} {:color &quot;#Dae&quot;, :opacity 0.07403564453125, :width 0.0843505859375} {:color &quot;#D8Cb47&quot;, :opacity 0.0057188262362615205} {:color &quot;#9302aF&quot;, :opacity 0.023427963256835938, :width 1.4375} {:color &quot;#DCBf8E&quot;, :opacity 4.42815238784533E-4, :width 1.5} {:color &quot;#4c7&quot;, :opacity 9.704306721687317E-4} {:color &quot;#b858E4&quot;, :opacity 9.031593799591064E-5, :width 3.3450842430494287E-9} {:color &quot;#BeBFEa&quot;, :opacity 0.1812896728515625, :width 0.014909868215909228} {:color &quot;#CEA&quot;, :opacity 0.011270568240433931, :width 0.203125} {:color &quot;#FC0&quot;, :opacity 0.0013566610869020224} {:color &quot;#f87&quot;, :opacity 0.7112291920930147, :width 1.0681910919174697E-4} {:color &quot;#E6B&quot;, :opacity 0.4744586767628789, :width 1.967179196071811E-5} {:color &quot;#d1dfE0&quot;, :opacity 0.004232526196574327, :width 0.003528594970703125} {:color &quot;#E20131&quot;, :opacity 0.3642453200300224} {:color &quot;#92dfCB&quot;, :opacity 1.220703125E-4} {:color &quot;#caa&quot;, :opacity 0.0078125, :width 0.0014696121215820312} {:color &quot;#fEf7BF&quot;, :opacity 0.056640625} {:color &quot;#5221E7&quot;, :opacity 3.832392394542694E-7, :width 9.210635127376854E-7} {:color &quot;#2Dcffd&quot;, :opacity 0.3401768784970045, :width 0.020772824995219707} {:color &quot;#e14d27&quot;, :opacity 0.012684157118201256}], :bg &quot;#b07&quot;, :fills [{:color &quot;#BBb&quot;, :opacity 0.4615478515625} {:color &quot;#D06Bd7&quot;, :opacity 0.0287017822265625} {:color &quot;#1D07CA&quot;, :opacity 0.02178192138671875} {:color &quot;#c67c25&quot;, :opacity 0.01185804232954979} {:color &quot;#750cEC&quot;, :opacity 1.300359144806862E-7} {:color &quot;#cFA&quot;, :opacity 2.056053813070946E-5} {:color &quot;#Fb4beb&quot;, :opacity 0.005614326801151037} {:color &quot;#2F8&quot;, :opacity 0.01189376413822174} {:color &quot;#2C4&quot;, :opacity 0.65625} {:color &quot;#07E0A0&quot;, :opacity 0.0927734375} {:color &quot;#bdC&quot;, :opacity 0.78125} {:color &quot;#7Bcc24&quot;, :opacity 2.4005770683288574E-4} {:color &quot;#1A153c&quot;, :opacity 9.565476909756399E-5} {:color &quot;#B5c&quot;, :opacity 4.891989169664157E-5} {:color &quot;#E7E&quot;, :opacity 0.4130859375} {:color &quot;#8281e3&quot;, :opacity 0.10683472454547882} {:color &quot;#D28&quot;, :opacity 0.0} {:color &quot;#C0Fcba&quot;, :opacity 4.325556801632047E-8} {:color &quot;#A9d&quot;, :opacity 2.4334609042853117E-4} {:color &quot;#44a&quot;, :opacity 0.03180503845214844} {:color &quot;#EAc8Fa&quot;, :opacity 0.081756591796875} {:color &quot;#F25&quot;, :opacity 0.6200967468321323} {:color &quot;#00231c&quot;, :opacity -0.0} {:color &quot;#f1b&quot;, :opacity 0.026656627655029297} {:color &quot;#455b6E&quot;, :opacity 0.018892377614974976} {:color &quot;#99a&quot;, :opacity 6.580352783203125E-5} {:color &quot;#E2Cee6&quot;, :opacity 2.609145303722471E-4} {:color &quot;#7CfCb9&quot;, :opacity 2.9668956995010376E-4} {:color &quot;#Cb5531&quot;, :opacity 0.00830078125} {:color &quot;#5BE&quot;, :opacity 2.9803253710269928E-5} {:color &quot;#7cDA50&quot;, :opacity 0.6756439208984375} {:color &quot;#7C9eA0&quot;, :opacity 0.08813250996172428}], :shapes [11 0 25 60 6 59 0 43 48 62 22 2 4 11 0 0 0 3 42 7 0 0 3 6]}" height="1200" width="1600" xmlns="http://www.w3.org/2000/svg"><rect fill="#b07" height="1200" width="1600" x="0" y="0"></rect><circle cx="800.0" cy="600.0" fill-opacity="0.10683472454547882" fill="#8281e3" id="element15" r="2560.0" stroke-opacity="0.010141685605049133" stroke="#2E1"></circle><circle cx="434.2857" cy="600.0" fill-opacity="0.4130859375" fill="#E7E" id="element14" r="2194.2857" stroke-opacity="0.08055810630321503" stroke="#A4d"></circle><polygon fill-opacity="4.891989169664157E-5" fill="#B5c" id="element13" points="1057.1717804902364,-938.2921743198735 1731.8985057911195,-159.61602377487702 1878.5306365822767,860.2328471282938 1450.513507390643,1797.4596277856647 583.7395325100424,2354.5014374665097 -446.59667536718575,2354.501437466509 -1313.370650247786,1797.4596277856633 -1741.387779439419,860.2328471282924 -1594.7556486482613,-159.61602377487793 -920.0289233473778,-938.2921743198735 68.57142857142867,-1228.5714285714278" stroke-opacity="0.01606226664807764" stroke="#3c780f"></polygon><polygon fill-opacity="9.565476909756399E-5" fill="#1A153c" id="element12" points="1165.7142857142853,600.0000000000002 -297.1428571428571,2062.857142857142 -1759.999999999999,599.9999999999998 -297.1428571428569,-862.8571428571422" stroke-opacity="4.57763671875E-5" stroke="#b6d"></polygon><polygon fill-opacity="2.4005770683288574E-4" fill="#7Bcc24" id="element11" points="1531.4285714285704,1697.1428571428567 1531.4285714285706,-497.14285714285666" stroke-opacity="0.06033864617347717" stroke="#9F0"></polygon><polygon fill-opacity="0.78125" fill="#bdC" id="element10" points="-353.7562804939737,-452.70086247990463 -69.69693170585833,-322.97530459192353 166.30810443438622,-118.47577667139757 335.1391034746712,144.2303857350738 423.1183819493658,443.8602917230247 423.1183819493658,756.1397082769759 335.1391034746712,1055.7696142649268 166.308104434386,1318.4757766713983 -69.69693170585879,1522.9753045919242 -353.7562804939744,1652.7008624799053 -662.8571428571427,1697.1428571428562 -971.9580052203111,1652.7008624799048 -1256.0173540084265,1522.9753045919238 -1492.022390148671,1318.4757766713979 -1660.8533891889565,1055.7696142649265 -1748.832667663651,756.1397082769756 -1748.832667663651,443.8602917230244 -1660.8533891889565,144.23038573507336 -1492.022390148671,-118.47577667139808 -1256.0173540084265,-322.975304591924 -971.958005220311,-452.7008624799052 -662.8571428571424,-497.14285714285666" stroke-opacity="0.010186852421611547" stroke-width="2.812237203057963E-10" stroke="#f2C"></polygon><polygon fill-opacity="0.0927734375" fill="#07E0A0" id="element9" points="1971.1402583679508,-127.67584796664332 2044.3783461219919,-116.45618560182439 2116.1055985176563,-97.8847132526069 2185.5859968828845,-72.15199935651123 2252.106578308448,-39.52209638003674 2314.984751612191,-0.3298312830358725 2373.575301648254,45.02263025898782 2427.277010087585,96.06991061892714 2475.5388247315736,152.2881956222817 2517.8655140533033,213.10060958942262 2553.8227489431706,277.8831348607027 2583.0415595132927,345.97101506207525 2605.2221212278514,416.66557640505107 2620.1368315085606,489.2413970252247 2627.632645245112,562.9537507922566 2627.632645245112,637.046249207745 2620.1368315085606,710.7586029747769 2605.2221212278514,783.3344235949506 2583.041559513292,854.0289849379263 2553.82274894317,922.1168651392989 2517.865514053303,986.8993904105787 2475.538824731573,1047.7118043777195 2427.277010087584,1103.930089381074 2373.575301648253,1154.977369741013 2314.98475161219,1200.3298312830368 2252.106578308447,1239.5220963800375 2185.5859968828836,1272.1519993565119 2116.1055985176554,1297.8847132526075 2044.3783461219905,1316.456185601825 1971.1402583679496,1327.6758479666435 1897.1428571428562,1331.4285714285718 1823.1454559177628,1327.6758479666437 1749.907368163722,1316.456185601825 1678.180115768057,1297.8847132526075 1608.6997174028288,1272.1519993565116 1542.1791359772653,1239.5220963800373 1479.3009626735225,1200.3298312830366 1420.7104126374593,1154.9773697410128 1367.0087041981285,1103.9300893810737 1318.7468895541394,1047.7118043777189 1276.4202002324098,986.899390410578 1240.4629653425422,922.1168651392979 1211.2441547724202,854.0289849379255 1189.0635930578612,783.3344235949496 1174.148882777152,710.7586029747757 1166.6530690406007,637.0462492077438 1166.6530690406007,562.9537507922555 1174.1488827771523,489.2413970252236 1189.0635930578615,416.66557640504993 1211.2441547724206,345.9710150620741 1240.4629653425427,277.8831348607016 1276.4202002324103,213.10060958942165 1318.74688955414,152.28819562228085 1367.008704198129,96.06991061892649 1420.7104126374597,45.022630258987334 1479.300962673523,-0.3298312830362704 1542.179135977266,-39.522096380036984 1608.6997174028293,-72.15199935651131 1678.1801157680575,-97.8847132526069 1749.9073681637224,-116.45618560182422 1823.1454559177632,-127.67584796664299 1897.1428571428564,-131.4285714285711" stroke-opacity="0.38947105407714844" stroke="#FE5"></polygon><polygon fill-opacity="0.65625" fill="#2C4" id="element8" points="529.7563005952377,-125.1710986048423 623.5933587035579,-106.50574722857382 714.1913105298938,-75.7518866368251 799.9999999999995,-33.435723910902 879.5512166463777,19.718699672698108 951.4838170964451,82.80189718926951 1014.5670146130167,154.734497639337 1067.7214381966169,234.28571428571536 1110.03760092254,320.09440375582096 1140.7914615142886,410.692355582157 1159.456812890557,504.5294136904771 1165.7142857142844,600.0000000000003 1159.456812890557,695.4705863095236 1140.7914615142886,789.3076444178437 1110.03760092254,879.9055962441797 1067.7214381966169,965.7142857142853 1014.5670146130167,1045.2655023606637 951.4838170964451,1117.1981028107314 879.5512166463777,1180.2813003273027 799.9999999999993,1233.4357239109029 714.1913105298936,1275.7518866368262 623.5933587035574,1306.5057472285748 529.7563005952372,1325.1710986048433 434.28571428571405,1331.4285714285704 338.8151279761907,1325.1710986048433 244.9780698678705,1306.5057472285748 154.38011804153444,1275.7518866368262 68.57142857142878,1233.4357239109029 -10.979788074949738,1180.2813003273027 -82.91238852501729,1117.1981028107311 -145.99558604158878,1045.2655023606635 -199.15000962518897,965.7142857142851 -241.46617235111208,879.9055962441794 -272.2200329428608,789.3076444178433 -290.8853843191293,695.4705863095232 -297.14285714285654,599.9999999999999 -290.8853843191293,504.52941369047664 -272.2200329428608,410.69235558215644 -241.46617235111208,320.0944037558203 -199.15000962518897,234.28571428571462 -145.99558604158878,154.7344976393361 -82.91238852501729,82.80189718926846 -10.979788074949738,19.718699672696914 68.57142857142867,-33.43572391090338 154.3801180415344,-75.75188663682657 244.9780698678705,-106.50574722857529 338.8151279761908,-125.17109860484385 434.28571428571416,-131.4285714285711" stroke-opacity="0.0046813590452075005" stroke="#01A"></polygon><polygon fill-opacity="0.01189376413822174" fill="#2F8" id="element7" points="-922.0745744566805,-123.63400636351076 -817.8475158928529,-100.41643879014967 -718.1116716794018,-62.27071085213119 -624.9927381793289,-10.00983251374015 -540.4753837917312,55.25234633597603 -466.3609491905572,132.12487565978194 -404.2290548755386,218.96935095739946 -355.4039343036984,313.9348330129145 -320.9262101522813,414.9972974506567 -301.5307152530663,520.0027733007552 -297.63083090633745,626.7132511507454 -309.3096763761605,732.8543824306743 -336.31833734757583,836.1639532042586 -378.0811711030706,934.4400993313936 -433.7080753476996,1025.588235379532 -502.01345919415076,1107.6656970756646 -581.5415119741438,1178.923145822541 -670.5972313153197,1237.8418528137572 -767.282549174028,1283.1660681015214 -869.5367858603464,1313.9297847266216 -975.1805698480216,1329.4773274796269 -1081.9622872948348,1329.4773274796269 -1187.6060712825101,1313.9297847266214 -1289.8603079688282,1283.166068101521 -1386.5456258275367,1237.8418528137565 -1475.6013451687122,1178.9231458225402 -1555.1293979487052,1107.6656970756637 -1623.4347817951561,1025.5882353795312 -1679.061686039785,934.4400993313925 -1720.8245197952797,836.1639532042577 -1747.8331807666948,732.8543824306734 -1759.5120262365174,626.7132511507446 -1755.6121418897885,520.0027733007546 -1736.2166469905733,414.9972974506562 -1701.738922839156,313.93483301291434 -1652.9138022673155,218.9693509573995 -1590.781907952297,132.12487565978233 -1516.667473351123,55.25234633597677 -1432.1501189635255,-10.00983251373917 -1339.0311854634526,-62.270710852129966 -1239.2953412500017,-100.41643879014813 -1135.0682826861744,-123.63400636350889 -1028.571428571428,-131.4285714285711" stroke-opacity="0.013580322265625" stroke-width="0.1533203125" stroke="#df4"></polygon><circle cx="2994.2857" cy="600.0" fill-opacity="0.005614326801151037" fill="#Fb4beb" id="element6" r="365.7143" stroke-opacity="0.6768089630641043" stroke-width="0.2270926535129547" stroke="#DF3D3b"></circle><polygon fill-opacity="2.056053813070946E-5" fill="#cFA" id="element5" points="2301.7301890367494,236.35755878029357 2340.162788070261,242.54961743803813 2377.71948325374,252.79173176013558 2413.9747422238624,266.9678544987753 2448.5177784096313,284.9173645188372 2480.9572054083646,306.4368866995338 2510.925471550029,331.282596255793 2538.0830244045287,359.17298137050057 2562.1221580464144,389.79203283587435 2582.7704994859723,422.79282456405963 2599.794094764035,457.8014443983286 2613.0000597438175,494.4212306872244 2622.238765565263,532.2372666195697 2627.4055339998154,570.8210813977296 2628.441823496575,609.7355049829575 2625.335892481464,648.539621406618 2618.122932393949,686.7937645242931 2606.884668953976,724.0644996088793 2591.748436176901,759.9295343392381 2572.885733628221,793.982503540934 2550.5102832649645,825.8375734660355 2524.875607880525,855.133813443651 2496.272158590104,881.5392853686508 2465.0240239035206,904.7548046930334 2431.485257672895,924.5173303064026 2396.035867521031,940.6029448968546 2359.0775092032063,952.8293920235938 2321.0289356869735,961.0581411552339 2282.32125251371,965.1959572760722 2243.3930332005734,965.1959572760722 2204.68535002731,961.0581411552339 2166.636776511077,952.8293920235938 2129.6784181932526,940.6029448968546 2094.2290280413886,924.5173303064029 2060.690261810763,904.7548046930336 2029.4421271241795,881.5392853686509 2000.8386778337583,855.1338134436512 1975.2040024493188,825.8375734660356 1952.8285520860625,793.9825035409341 1933.965849537382,759.9295343392383 1918.8296167603073,724.0644996088795 1907.591353320334,686.7937645242934 1900.3783932328197,648.5396214066184 1897.2724622177082,609.7355049829577 1898.308751714468,570.8210813977297 1903.4755201490202,532.2372666195697 1912.7142259704658,494.42123068722447 1925.9201909502483,457.8014443983286 1942.9437862283105,422.79282456405963 1963.592127667869,389.79203283587435 1987.631261309754,359.17298137050045 2014.7888141642538,331.2825962557928 2044.7570803059186,306.43688669953355 2077.1965073046517,284.91736451883685 2111.7395434904206,266.96785449877484 2147.9948024605433,252.79173176013504 2185.551497644022,242.54961743803753 2223.9840966775337,236.3575587802929 2262.8571428571418,234.28571428571445" stroke-opacity="0.25" stroke="#6Ef7Eb"></polygon><polygon fill-opacity="1.300359144806862E-7" fill="#750cEC" id="element4" points="1848.1464333840227,417.14285714285745 1848.1464333840222,782.8571428571429 1531.4285714285704,965.7142857142856 1214.7107094731189,782.8571428571427 1214.7107094731189,417.1428571428572 1531.4285714285706,234.28571428571445" stroke-opacity="0.05573816504329443" stroke-width="0.11497235298156738" stroke="#C62"></polygon><polygon fill-opacity="0.01185804232954979" fill="#c67c25" id="element3" points="838.2275522807415,236.28913540817524 876.0362754990659,242.27744887449484 913.0119293714089,252.18504546920187 948.7494008962922,265.9033754907068 982.8571428571423,283.28213804454896 1014.9614636955323,304.13092777144857 1044.7106217540959,328.22132096826795 1071.7786790317318,355.28937824590395 1095.8690722285512,385.0385363044676 1116.7178619554509,417.1428571428577 1134.0966245092932,451.2505991037078 1147.8149545307979,486.988070628591 1157.7225511255049,523.963724500934 1163.7108645918245,561.7724477192583 1165.7142857142844,600.0 1163.7108645918245,638.2275522807419 1157.7225511255049,676.0362754990662 1147.8149545307979,713.0119293714092 1134.0966245092932,748.7494008962925 1116.7178619554509,782.8571428571427 1095.8690722285512,814.9614636955326 1071.7786790317318,844.7106217540963 1044.7106217540959,871.7786790317323 1014.9614636955323,895.8690722285517 982.8571428571422,916.7178619554513 948.7494008962921,934.0966245092934 913.0119293714088,947.8149545307984 876.0362754990658,957.7225511255054 838.2275522807415,963.710864591825 799.9999999999998,965.7142857142851 761.7724477192579,963.710864591825 723.9637245009335,957.7225511255054 686.9880706285905,947.8149545307984 651.2505991037073,934.0966245092935 617.1428571428571,916.7178619554513 585.038536304467,895.8690722285518 555.2893782459033,871.7786790317324 528.2213209682674,844.7106217540965 504.1309277714479,814.9614636955329 483.2821380445483,782.8571428571428 465.903375490706,748.7494008962926 452.18504546920104,713.0119293714095 442.277448874494,676.0362754990663 436.2891354081744,638.227552280742 434.28571428571433,600.0 436.28913540817433,561.7724477192583 442.2774488744939,523.9637245009338 452.18504546920093,486.9880706285908 465.90337549070586,451.2505991037075 483.28213804454805,417.14285714285734 504.13092777144766,385.03853630446713 528.2213209682672,355.28937824590344 555.2893782459031,328.22132096826743 585.0385363044668,304.130927771448 617.1428571428569,283.28213804454833 651.2505991037071,265.90337549070614 686.9880706285903,252.18504546920119 723.9637245009334,242.27744887449413 761.7724477192578,236.2891354081745 799.9999999999997,234.28571428571445" stroke-opacity="0.008918995488784276" stroke-width="0.25" stroke="#4DC"></polygon><polygon fill-opacity="0.02178192138671875" fill="#1D07CA" id="element2" points="159.5208730202895,245.77530107295806 244.7556293857698,279.5221284411015 318.92008445392,333.4057591144553 377.35421275502233,404.0404864076812 416.3863831022272,486.9880706285905 433.564060682339,577.0366100007079 427.8079088379202,668.5280236199218 399.4796077590013,755.7135694866547 350.3591287865743,833.1150591080918 283.53289226696165,895.8690722285519 203.1998364103967,940.0325434105602 114.4075825606601,962.8305193378659 22.73527458219769,962.8305193378659 -66.05697926753899,940.0325434105604 -146.39003512410406,895.8690722285521 -213.21627164371677,833.1150591080922 -262.3367506161439,755.7135694866552 -290.6650516950629,668.5280236199221 -296.42120353948184,577.0366100007084 -279.2435259593701,486.9880706285908 -240.21135561216522,404.0404864076814 -181.77722731106306,333.4057591144554 -107.61277224291285,279.5221284411015 -22.378015877432517,245.77530107295794 68.57142857142867,234.28571428571445" stroke-opacity="5.492117634275928E-5" stroke="#d6Be5c"></polygon><circle cx="-662.8571" cy="600.0" fill-opacity="0.0287017822265625" fill="#D06Bd7" id="element1" r="365.7143" stroke-opacity="0.004241943359375" stroke-width="0.0016180872917175293" stroke="#4E4bb4"></circle><polygon fill-opacity="0.4615478515625" fill="#BBb" id="element0" points="-1196.565643901952,292.3415651360253 -1061.6202988417754,448.0767952450246 -1032.293872683544,652.0465694256587 -1117.8972985218707,839.491925557133 -1291.2520934979907,950.9002874933019 -1497.3193350734364,950.9002874933018 -1670.6741300495564,839.4919255571327 -1756.2775558878832,652.0465694256585 -1726.9511297296515,448.0767952450244 -1592.005784669475,292.3415651360253 -1394.2857142857135,234.28571428571445" stroke-opacity="0.006439208984375" stroke-width="3.2578723676124355E-5" stroke="#c6f"></polygon></svg>