<svg config-used="{:r 0.8999999999999989, :y-res 1200, :n 7, :x-res 1600, :cx 0.5, :id &quot;spec_generated_113&quot;, :cy 0.5, :strokes [{:color &quot;#421DEf&quot;, :opacity -0.0} {:color &quot;#c6D87b&quot;, :opacity 0.017973710549995303} {:color &quot;#FEF7a2&quot;, :opacity 5.9604644775390625E-8} {:color &quot;#c08&quot;, :opacity 0.0087890625, :width 0.03996974229812622} {:color &quot;#33a&quot;, :opacity 2.86102294921875E-5, :width 0.453125} {:color &quot;#1dDd5f&quot;, :opacity 0.5} {:color &quot;#499&quot;, :opacity 0.006188154220581055} {:color &quot;#aEBbB4&quot;, :opacity 1.31258275359869E-8} {:color &quot;#38C5aa&quot;, :opacity 3.41266393661499E-4, :width 0.0106201171875} {:color &quot;#c9Bbe4&quot;, :opacity 0.015625} {:color &quot;#d41&quot;, :opacity 9.320829737191616E-5, :width 0.008633282830487587} {:color &quot;#e96FFf&quot;, :opacity 1.2556194234993913E-6} {:color &quot;#216&quot;, :opacity 0.004597663879394531} {:color &quot;#DDE&quot;, :opacity 0.162841796875} {:color &quot;#EEd4CE&quot;, :opacity 0.004323413246311247, :width 0.11280988901853561} {:color &quot;#F2D&quot;, :opacity 0.0} {:color &quot;#FF9&quot;, :opacity 0.03125, :width 0.075836181640625} {:color &quot;#5A6&quot;, :opacity 0.203125, :width 1.4363507216330618E-4} {:color &quot;#B3E&quot;, :opacity 0.625, :width 0.017364501953125} {:color &quot;#BD5f1B&quot;, :opacity 0.0031144404783844948, :width 2.785917308756325E-5} {:color &quot;#58a&quot;, :opacity 0.42960643768310547} {:color &quot;#a24&quot;, :opacity 7.981288990777102E-5, :width 0.0048828125} {:color &quot;#e507AF&quot;, :opacity 0.031240463256835938, :width 3.34375} {:color &quot;#8097F1&quot;, :opacity 0.011980882845818996} {:color &quot;#C96389&quot;, :opacity 0.0281982421875, :width 0.06237912178039551} {:color &quot;#BEa581&quot;, :opacity -0.0, :width 0.035907626152038574} {:color &quot;#3b9&quot;, :opacity 0.015625, :width 5.095638334751129E-5} {:color &quot;#a3f&quot;, :opacity 1.7754708096617833E-5, :width 0.23456022143363953} {:color &quot;#EA1c0E&quot;, :opacity 0.7221435010433197, :width 0.0693359375} {:color &quot;#e13&quot;, :opacity 0.005859375, :width 0.453125} {:color &quot;#beaf7B&quot;, :opacity 8.544921875E-4, :width 0.00146484375} {:color &quot;#b63&quot;, :opacity 0.020234648138284683, :width 4.5515160309150815E-5} {:color &quot;#6b5&quot;, :opacity 0.111328125, :width 0.029577035718830302} {:color &quot;#6Ed&quot;, :opacity 0.00390625} {:color &quot;#B61E1E&quot;, :opacity 5.876909472135594E-5, :width 0.03796088695526123} {:color &quot;#4b4&quot;, :opacity 0.33741542510688305} {:color &quot;#0c3&quot;, :opacity 1.545825989524019E-5, :width 0.0014966982416808605} {:color &quot;#EEdFa5&quot;, :opacity 0.009492874145507812} {:color &quot;#c9e&quot;, :opacity 6.68824657964251E-4, :width 9.251262599718757E-5} {:color &quot;#eBA86F&quot;, :opacity -0.0, :width 0.125} {:color &quot;#5aB&quot;, :opacity 0.19576311111450195, :width 0.2685668468475342} {:color &quot;#0FA1B6&quot;, :opacity 0.4524383544921875, :width 0.576171875} {:color &quot;#2B4da1&quot;, :opacity 0.10546875, :width 0.009058721363544464} {:color &quot;#66dB88&quot;, :opacity 0.20246289786882699} {:color &quot;#97B&quot;, :opacity 0.007381791888519729} {:color &quot;#F3A&quot;, :opacity 0.0048828125} {:color &quot;#88C&quot;, :opacity 0.046356139617273584} {:color &quot;#BDCe9B&quot;, :opacity -0.0} {:color &quot;#6CAEFC&quot;, :opacity 7.727742195129395E-4} {:color &quot;#0cff7e&quot;, :opacity 0.8537864685058594, :width 0.7802124712616205} {:color &quot;#f18&quot;, :opacity 0.024934841319918633, :width 0.09375} {:color &quot;#7b3&quot;, :opacity 7.352828979492188E-4, :width 0.020121630281209946} {:color &quot;#E17eF5&quot;, :opacity 0.146484375, :width 0.006224665325134993} {:color &quot;#6a5&quot;, :opacity 0.031188249588012695} {:color &quot;#aFa&quot;, :opacity 0.0} {:color &quot;#C5A786&quot;, :opacity 0.03125} {:color &quot;#83f&quot;, :opacity 1.0669883727132401E-4, :width 0.005421240406576544} {:color &quot;#A1d0C9&quot;, :opacity 0.736417771782726} {:color &quot;#Cbb&quot;, :opacity 0.4975457191467285, :width 0.132080078125} {:color &quot;#b66F61&quot;, :opacity 2.432073339764078E-7, :width 0.0013580322265625} {:color &quot;#92C&quot;, :opacity 0.015625, :width 3.0} {:color &quot;#14e&quot;, :opacity 0.4488945007324219} {:color &quot;#854&quot;, :opacity 6.685111193609206E-7} {:color &quot;#E2E&quot;, :opacity 3.642609517555684E-4, :width 0.08392810821533203} {:color &quot;#E71d2e&quot;, :opacity 0.8889368362724781} {:color &quot;#Fe0&quot;, :opacity 0.019863959474605508} {:color &quot;#364&quot;, :opacity -0.0} {:color &quot;#f36&quot;, :opacity 2.6345252990722656E-5} {:color &quot;#52b3A8&quot;, :opacity 0.0136566162109375} {:color &quot;#3Ef4BA&quot;, :opacity 0.13726075738668442, :width 0.08930082549341023} {:color &quot;#21b&quot;, :opacity 0.12069511413574219, :width 8.90493392944336E-5} {:color &quot;#BbB28b&quot;, :opacity 0.03769585303962231} {:color &quot;#1fDFcF&quot;, :opacity 0.23405137658119202} {:color &quot;#BF00Bb&quot;, :opacity 0.0}], :bg &quot;#d29&quot;, :fills [{:color &quot;#C6DF0D&quot;, :opacity 0.011354438029229641} {:color &quot;#83fEEB&quot;, :opacity 0.006137847900390625} {:color &quot;#6E9ABb&quot;, :opacity 0.15625} {:color &quot;#576&quot;, :opacity 0.09712302684783936} {:color &quot;#fea0B5&quot;, :opacity 0.001461029052734375} {:color &quot;#f97&quot;, :opacity 0.027339645312167704} {:color &quot;#B4A&quot;, :opacity -0.0} {:color &quot;#b5F&quot;, :opacity 3.731250762939453E-4} {:color &quot;#CC6eD0&quot;, :opacity 2.7073686942458153E-4} {:color &quot;#ACEafE&quot;, :opacity 0.47261470556259155}], :shapes [86 0 0 48 15 0 75 29 12 9 91 28 3 11 0 0 57 89 7 3 9 21 22 7 0 0 0 7 3 3 6 2 0 0 0 37 50 0 12 3 0 23 31 0 0 14 0 20 0 2 8 11 59 0 10 0 9 10 0 0 7 0 31 88 10 89 3 9 3 7 68 29 61 0 0 0 86 12 62 3 17 27 9 61 0 16 30 97 4 58 0 85 24 0]}" height="1200" width="1600" xmlns="http://www.w3.org/2000/svg"><rect fill="#d29" height="1200" width="1600" x="0" y="0"></rect><circle cx="800.0" cy="600.0" fill-opacity="0.027339645312167704" fill="#f97" id="element15" r="1440.0" stroke-opacity="0.0" stroke="#F2D"></circle><circle cx="594.2857" cy="600.0" fill-opacity="0.001461029052734375" fill="#fea0B5" id="element14" r="1234.2857" stroke-opacity="0.004323413246311247" stroke-width="0.11280988901853561" stroke="#EEd4CE"></circle><polygon fill-opacity="0.09712302684783936" fill="#576" id="element13" points="944.659126525758,-265.28934805492815 1324.1929095075043,172.715986626632 1406.6734830775301,746.3809765096651 1165.9138479072362,1273.5710406294359 678.353487036899,1586.9070585749107 98.78937010595848,1586.9070585749105 -388.7709907643788,1273.5710406294352 -629.5306259346721,746.3809765096644 -547.0500523646459,172.71598662663155 -167.51626938289934,-265.28934805492815 388.5714285714289,-428.5714285714273" stroke-opacity="0.162841796875" stroke="#DDE"></polygon><polygon fill-opacity="0.15625" fill="#6E9ABb" id="element12" points="895.4723322569093,1011.4285714285712 -529.7580465426222,1011.4285714285708 182.85714285714369,-222.85714285714187" stroke-opacity="0.004597663879394531" stroke="#216"></polygon><polygon fill-opacity="0.006137847900390625" fill="#83fEEB" id="element11" points="1348.7557763844682,-1.6697972322105201 1479.196821855407,43.973498665936326 1596.2108491471035,117.49828510544515 1693.9302863231262,215.21772228146799 1767.455072762635,332.23174957316473 1813.0983686607815,462.67279504410357 1828.5714285714273,600.0000000000002 1813.0983686607813,737.327204955897 1767.4550727626345,867.7682504268358 1693.9302863231258,984.7822777185324 1596.210849147103,1082.501714894555 1479.1968218554061,1156.0265013340636 1348.7557763844675,1201.6697972322104 1211.4285714285706,1217.1428571428564 1074.101366472674,1201.6697972322104 943.6603210017352,1156.0265013340636 826.6462937100385,1082.5017148945549 728.9268565340158,984.7822777185321 655.402070094507,867.7682504268355 609.7587741963604,737.3272049558967 594.2857142857144,599.9999999999999 609.7587741963605,462.6727950441032 655.4020700945072,332.2317495731644 728.926856534016,215.2177222814677 826.6462937100387,117.49828510544495 943.6603210017354,43.97349866593619 1074.1013664726743,-1.6697972322104508 1211.4285714285709,-17.14285714285643" stroke-opacity="1.2556194234993913E-6" stroke="#e96FFf"></polygon><polygon fill-opacity="0.011354438029229641" fill="#C6DF0D" id="element10" points="19.72024911809831,-15.67237376305778 62.094740430939055,-11.267931146612526 104.06439733303625,-3.9505184683630326 145.42921529637454,6.244993467947371 185.99207212592364,19.270018404931392 225.5596673366672,35.06248616720049 263.9434433184416,53.54713845401713 300.9604838988182,74.63588747937001 336.4343860219634,98.22823575038962 370.19610038953374,124.2117549836681 402.0847370575676,152.462621877229 431.9483321503359,182.8462081849502 459.64457203741506,215.217722281466 485.04147152294456,249.42289916019973 508.0180028151914,285.2987355763722 528.464672279093,322.6742668316938 546.2840422232913,361.37138149900926 561.3911952351058,401.2056702043593 573.7141388506751,441.9873044216274 583.1941486318339,483.5219410919138 589.7860480148014,525.6116487567145 593.4584235970839,568.0558507914591 594.1937748366407,610.6522812444681 591.9885974499385,653.197948726325 586.8534001114573,695.4901037562878 578.8126543750703,737.327204955897 567.9046780559478,778.5098794854248 554.1814526287152,818.8418731462508 537.7083755120558,858.1309856214918 518.5639484202289,896.1899863980399 496.8394032666514,932.8375070052205 472.63826740228353,967.8989053181509 446.07587026065596,1001.2070978069969 417.2787937605982,1032.6033557660812 386.38426908574945,1061.9380617284514 353.53952271547496,1089.0714224612448 318.90107482364465,1113.874135144105 282.6339933887258,1136.2280035560045 244.9111075696943,1156.0265013340647 205.91218409638577,1173.175279620187 165.82307059916297,1187.5926166763268 124.83480996032245,1199.2098073257926 83.1427299077601,1207.9714903646995 40.94551218939523,1213.8359123833193 -1.5557542358361616,1216.7751267400897 -44.158531478447344,1216.7751267400897 -86.65979790367874,1213.8359123833193 -128.8570156220436,1207.9714903646995 -170.54909567460606,1199.2098073257926 -211.53735631344648,1187.5926166763268 -251.62646981066928,1173.175279620187 -290.6253932839778,1156.0265013340647 -328.3482791030093,1136.2280035560045 -364.61536053792804,1113.874135144105 -399.25380842975824,1089.0714224612448 -432.09855480003273,1061.9380617284514 -462.99307947488137,1032.6033557660814 -491.7901559749391,1001.207097806997 -518.3525531165666,967.898905318151 -542.5536889809343,932.8375070052207 -564.2782341345119,896.1899863980401 -583.4226612263387,858.1309856214922 -599.895738342998,818.8418731462509 -613.6189637702306,778.5098794854249 -624.5269400893532,737.3272049558973 -632.5676858257398,695.4901037562881 -637.7028831642211,653.1979487263254 -639.9080605509233,610.6522812444686 -639.1727093113662,568.0558507914595 -635.5003337290838,525.6116487567151 -628.908434346116,483.5219410919144 -619.4284245649573,441.9873044216282 -607.1054809493877,401.2056702043602 -591.9983279375732,361.3713814990103 -574.1789579933749,322.6742668316949 -553.7322885294735,285.29873557637353 -530.7557572372267,249.42289916020127 -505.3588577516972,215.2177222814676 -477.6626178646181,182.84620818495193 -447.7990227718498,152.46262187723093 -415.91038610381617,124.2117549836702 -382.14867173624594,98.22823575039187 -346.6747696131009,74.63588747937234 -309.65772903272455,53.54713845401959 -271.27395305095024,35.062486167203026 -231.70635784020692,19.27001840493393 -191.14350101065787,6.244993467949975 -149.77868304731976,-3.950518468360361 -107.80902614522279,-11.267931146609783 -65.43453483238238,-15.672373763054972 -22.857142857141866,-17.14285714285643" stroke-opacity="9.320829737191616E-5" stroke-width="0.008633282830487587" stroke="#d41"></polygon><polygon fill-opacity="0.47261470556259155" fill="#ACEafE" id="element9" points="1681.604045128175,284.8274291167639 1822.3209040964498,528.5561783313203 1773.450451842739,805.7142857142856 1557.859716111131,986.6163925519161 1276.4259981745813,986.6163925519159 1060.8352624429733,805.7142857142853 1011.9648101892626,528.5561783313201 1152.6816691575375,284.8274291167637 1417.1428571428562,188.57142857142907" stroke-opacity="0.015625" stroke="#c9Bbe4"></polygon><polygon fill-opacity="2.7073686942458153E-4" fill="#CC6eD0" id="element8" points="800.0000000000002,243.69240530011726 950.5933089855976,394.2857142857148 1005.7142857142853,600.0000000000002 950.5933089855973,805.7142857142856 799.9999999999998,956.3075946998829 594.2857142857142,1011.4285714285709 388.57142857142884,956.3075946998829 237.97811958583148,805.7142857142853 182.85714285714351,599.9999999999999 237.97811958583156,394.28571428571445 388.571428571429,243.69240530011706 594.2857142857144,188.57142857142907" stroke-opacity="3.41266393661499E-4" stroke-width="0.0106201171875" stroke="#38C5aa"></polygon><polygon fill-opacity="3.731250762939453E-4" fill="#b5F" id="element7" points="-140.12644745603473,198.19039993642215 -55.81705535806168,226.59754162109255 20.414534251149917,272.46456725253563 85.00381696679972,333.6467856897627 134.9306697149359,407.2833843978009 167.8605683507667,489.93119786226356 182.2537474130345,577.7257061819996 177.43719784565712,666.5617357245659 153.6361361531949,752.2854124827074 111.96347352740713,830.888392606237 54.367777356837905,898.695288105516 -16.457841618595694,952.5355239089504 -97.20165617262421,989.8915904294952 -184.08817527700546,1009.0167595149358 -273.0546818658488,1009.0167595149358 -359.9412009702301,989.8915904294952 -440.6850155242587,952.5355239089504 -511.5106344996923,898.6952881055163 -569.1063306702616,830.888392606237 -610.7789932960494,752.2854124827074 -634.5800549885116,666.561735724566 -639.396604555889,577.7257061819997 -625.0034254936212,489.9311978622636 -592.0735268577904,407.28338439780094 -542.1466741096544,333.64678568976274 -477.55739139400464,272.4645672525356 -401.32580178479304,226.59754162109243 -317.0164096868199,198.19039993642198 -228.57142857142725,188.57142857142907" stroke-opacity="1.31258275359869E-8" stroke="#aEBbB4"></polygon><polygon fill-opacity="-0.0" fill="#B4A" id="element6" points="2051.4994420569315,395.00718324010194 2068.592427895882,397.1665295169247 2085.4447767881966,400.7486068535387 2101.9382816147922,405.7282895511468 2117.9572522898766,412.0706487135222 2133.389327243779,419.7311972481196 2148.1262615586284,428.65620191106535 2162.0646862286785,438.7830602072559 2175.1068332196137,450.0407395018812 2187.161221241062,462.3502752633207 2198.143297422118,475.62532494259733 2207.9760303889834,489.77277360432083 2216.5904505847047,504.69338706105714 2223.926134041061,520.2825079298532 2229.931626209286,536.4307897285823 2234.564802876762,553.0249638629509 2237.793165638098,569.948634124304 2239.594069848099,587.0830931253985 2239.95488345768,604.3081549474335 2238.8730756186137,621.5029981579174 2236.3562344356133,638.5470132862063 2232.42201374123,655.3206488122834 2227.098009266901,671.7062497347736 2220.4215650787214,687.5888828362436 2212.4395116356536,702.8571428571429 2203.2078373075024,717.4039339236547 2192.7912956567316,731.127220748302 2181.2629512387457,743.9307443341781 2168.7036671065334,755.7246971626471 2155.201537614449,766.4263531285605 2140.851270499613,775.960647804447 2125.7535225751826,784.2607049635365 2110.0141936951313,791.2683056684402 2093.74368394286,796.934296635168 2077.0561192539367,801.2189350080971 2060.0685509046543,804.0921671275497 2042.9001344814328,805.5338393346223 2025.6712940899906,805.5338393346223 2008.502877666769,804.0921671275497 1991.515309317487,801.2189350080971 1974.8277446285633,796.934296635168 1958.5572348762923,791.2683056684402 1942.817905996241,784.2607049635362 1927.7201580718108,775.960647804447 1913.3698909569746,766.4263531285605 1899.8677614648902,755.724697162647 1887.308477332678,743.9307443341779 1875.7801329146923,731.1272207483019 1865.3635912639213,717.4039339236544 1856.1319169357703,702.8571428571429 1848.1498634927023,687.5888828362436 1841.4734193045228,671.7062497347733 1836.1494148301938,655.3206488122833 1832.2151941358104,638.5470132862063 1829.69835295281,621.5029981579173 1828.6165451137438,604.3081549474334 1828.9773587233246,587.0830931253984 1830.7782629333258,569.9486341243039 1834.0066256946618,553.0249638629509 1838.6398023621375,536.4307897285823 1844.6452945303633,520.2825079298532 1851.9809779867194,504.69338706105714 1860.5953981824402,489.77277360432083 1870.428131149306,475.62532494259733 1881.4102073303623,462.3502752633207 1893.4645953518104,450.0407395018812 1906.5067423427454,438.783060207256 1920.4451670127955,428.65620191106547 1935.182101327645,419.7311972481197 1950.6141762815473,412.07064871352236 1966.633146956632,405.728289551147 1983.1266517832275,400.748606853539 1999.9790006755422,397.166529516925 2017.0719865144927,395.0071832401022 2034.285714285712,394.28571428571456" stroke-opacity="0.006188154220581055" stroke="#499"></polygon><circle cx="1622.8571" cy="600.0" fill-opacity="0.027339645312167704" fill="#f97" id="element5" r="205.7143" stroke-opacity="0.5" stroke="#1dDd5f"></circle><polygon fill-opacity="0.001461029052734375" fill="#fea0B5" id="element4" points="1295.1001094327353,412.0706487135223 1364.3040783839203,462.3502752633207 1407.074483352145,536.4307897285823 1416.0159327614726,621.5029981579173 1389.5823687785123,702.8571428571428 1332.3443947573082,766.4263531285604 1254.1989763967956,801.2189350080969 1168.6581664603461,801.2189350080969 1090.5127480998337,766.4263531285604 1033.2747740786294,702.8571428571428 1006.8412100956692,621.5029981579173 1015.7826595049967,536.4307897285823 1058.5530644732214,462.3502752633208 1127.7570334244065,412.07064871352236 1211.4285714285709,394.28571428571456" stroke-opacity="2.86102294921875E-5" stroke-width="0.453125" stroke="#33a"></polygon><polygon fill-opacity="0.09712302684783936" fill="#576" id="element3" points="826.8511023995533,396.0456285173883 853.2427749925182,401.2952585919638 878.7234489436753,409.9447818833931 902.8571428571424,421.84620265005896 925.2309225389363,436.79588428294653 945.4619664155177,454.5380335844822 963.2041157170535,474.76907746106366 978.153797349941,497.14285714285757 990.055218116607,521.2765510563247 998.7047414080362,546.7572250074818 1003.9543714826118,573.1488976004467 1005.714285714285,600.0000000000001 1003.9543714826117,626.8511023995535 998.7047414080362,653.2427749925184 990.0552181166069,678.7234489436755 978.153797349941,702.8571428571427 963.2041157170535,725.2309225389366 945.4619664155177,745.4619664155181 925.2309225389363,763.2041157170538 902.8571428571424,778.1537973499413 878.7234489436752,790.0552181166072 853.2427749925182,798.7047414080365 826.8511023995532,803.954371482612 799.9999999999998,805.7142857142853 773.1488976004464,803.954371482612 746.7572250074813,798.7047414080365 721.2765510563244,790.0552181166072 697.1428571428571,778.1537973499413 674.7690774610631,763.2041157170538 654.5380335844817,745.4619664155181 636.795884282946,725.2309225389365 621.8462026500584,702.8571428571427 609.9447818833926,678.7234489436754 601.2952585919633,653.2427749925184 596.0456285173877,626.8511023995534 594.2857142857144,600.0 596.0456285173877,573.1488976004466 601.2952585919633,546.7572250074816 609.9447818833926,521.2765510563246 621.8462026500584,497.14285714285734 636.795884282946,474.7690774610634 654.5380335844817,454.5380335844819 674.7690774610631,436.79588428294613 697.1428571428571,421.8462026500586 721.2765510563243,409.9447818833927 746.7572250074813,401.2952585919634 773.1488976004464,396.04562851738785 799.9999999999998,394.28571428571456" stroke-opacity="0.0087890625" stroke-width="0.03996974229812622" stroke="#c08"></polygon><circle cx="388.5714" cy="600.0" fill-opacity="0.15625" fill="#6E9ABb" id="element2" r="205.7143" stroke-opacity="5.9604644775390625E-8" stroke="#FEF7a2"></circle><circle cx="-22.8571" cy="600.0" fill-opacity="0.006137847900390625" fill="#83fEEB" id="element1" r="205.7143" stroke-opacity="0.017973710549995303" stroke="#c6D87b"></circle><polygon fill-opacity="0.011354438029229641" fill="#C6DF0D" id="element0" points="-419.26953526975467,394.83450164635576 -404.33347406594044,396.4779357102637 -389.55722102322113,399.2072480456385 -375.01961384486407,403.0078765902714 -360.7982169551943,407.8595433464478 -346.9689076598311,413.73636257283897 -333.6054713074326,420.6069788961315 -320.77920761293564,428.4347346055113 -308.558550242727,437.177865237411 -297.0087016914239,446.78972240699386 -286.191285398354,457.21902269747 -276.16401695984376,468.4101212793141 -266.98039619153974,480.30330879950714 -258.6894216837448,492.83512995676887 -251.33532937273793,505.93872206304604 -244.95735652291472,519.5441717848823 -239.58953237900505,533.5788881613026 -235.26049660532863,547.9679899079972 -231.99334648079451,562.6347049413732 -229.80551366492438,577.5007799908374 -228.70867119240688,592.486898113853 -228.70867119240688,607.513101886147 -229.80551366492438,622.4992200091626 -231.99334648079451,637.3652950586269 -235.26049660532863,652.0320100920028 -239.58953237900505,666.4211118386974 -244.95735652291472,680.4558282151177 -251.33532937273793,694.061277936954 -258.6894216837448,707.1648700432311 -266.98039619153974,719.6966912004929 -276.16401695984365,731.5898787206859 -286.1912853983539,742.7809773025301 -297.00870169142377,753.2102775930061 -308.5585502427268,762.822134762589 -320.7792076129355,771.5652653944887 -333.60547130743254,779.3930211038685 -346.96890765983096,786.2636374271611 -360.79821695519416,792.1404566535523 -375.01961384486395,796.9921234097287 -389.55722102322113,800.7927519543616 -404.3334740659404,803.5220642897365 -419.2695352697546,805.1654983536444 -434.28571428571274,805.7142857142852 -449.3018933016708,805.1654983536445 -464.23795450548505,803.5220642897365 -479.01420754820435,800.7927519543616 -493.5518147265614,796.9921234097288 -507.77321161623126,792.1404566535523 -521.6025209115944,786.2636374271613 -534.9659572639929,779.3930211038687 -547.7922209584899,771.5652653944888 -560.0128783286985,762.8221347625891 -571.5627268800016,753.2102775930064 -582.3801431730715,742.7809773025301 -592.4074116115818,731.589878720686 -601.5910323798857,719.696691200493 -609.8820068876807,707.1648700432313 -617.2360991986876,694.0612779369541 -623.6140720485108,680.4558282151177 -628.9818961924205,666.4211118386975 -633.310931966097,652.0320100920029 -636.578082090631,637.365295058627 -638.7659149065012,622.4992200091627 -639.8627573790187,607.5131018861471 -639.8627573790187,592.4868981138532 -638.7659149065013,577.5007799908374 -636.5780820906311,562.6347049413732 -633.310931966097,547.9679899079972 -628.9818961924207,533.5788881613026 -623.6140720485109,519.5441717848823 -617.2360991986877,505.93872206304604 -609.8820068876809,492.83512995676887 -601.591032379886,480.3033087995071 -592.4074116115819,468.41012127931407 -582.3801431730717,457.2190226974699 -571.5627268800018,446.78972240699375 -560.0128783286987,437.17786523741086 -547.79222095849,428.4347346055111 -534.965957263993,420.6069788961313 -521.6025209115946,413.7363625728387 -507.7732116162314,407.8595433464476 -493.55181472656153,403.00787659027105 -479.01420754820435,399.20724804563815 -464.2379545054851,396.47793571026335 -449.3018933016708,394.83450164635536 -434.28571428571274,394.28571428571456" stroke-opacity="-0.0" stroke="#421DEf"></polygon></svg>