<svg config-used="{:r -3.8000000000000034, :y-res 1200, :n 23, :x-res 1600, :cx 0.5, :id &quot;spec_generated_740&quot;, :cy 0.5, :strokes [{:color &quot;#FC8eeb&quot;, :opacity 0.08725827932357788, :width 3.294876159998239E-5} {:color &quot;#4AD&quot;, :opacity 0.252471923828125, :width 3.4940332557198417E-4} {:color &quot;#19f8e9&quot;, :opacity 0.46875, :width 0.39554284512996674} {:color &quot;#b03&quot;, :opacity 0.00531768798828125, :width 1.58984375} {:color &quot;#e5BB8d&quot;, :opacity 0.19458167254924774} {:color &quot;#a17&quot;, :opacity 0.22535979747772217} {:color &quot;#c2a24A&quot;, :opacity 9.347931481897831E-4, :width 0.0126953125} {:color &quot;#1f6&quot;, :opacity 0.037227630615234375} {:color &quot;#bb1AfB&quot;, :opacity 0.509765625, :width 2.0316243171691895E-4} {:color &quot;#EdEf6F&quot;, :opacity 0.030343055725097656, :width 1.9889907836914062} {:color &quot;#06E&quot;, :opacity 0.0390625, :width 0.04023110866546631} {:color &quot;#aB1e8b&quot;, :opacity 2.0575523376464844E-4, :width 1.0} {:color &quot;#B94&quot;, :opacity 0.0022032497712416443} {:color &quot;#3DD&quot;, :opacity 0.08510208129882812} {:color &quot;#aBCCaf&quot;, :opacity 0.34375, :width 0.005859375} {:color &quot;#8D8&quot;, :opacity 0.007111006882041693} {:color &quot;#29ABEb&quot;, :opacity 3.0517578125E-5, :width 0.01003660545393359} {:color &quot;#34a2a5&quot;, :opacity 0.15527862310409546, :width 2.714237332344055} {:color &quot;#BB6BEa&quot;, :opacity 0.7194976806640625, :width 8.046369266594411E-4} {:color &quot;#2dACbe&quot;, :opacity 6.40869140625E-4, :width 9.658932685852051E-5} {:color &quot;#f13&quot;, :opacity 1.6178030049474046E-4, :width 0.18901497684419155} {:color &quot;#6e2&quot;, :opacity 0.016804574232082814, :width 0.00947216572239995} {:color &quot;#d22&quot;, :opacity 0.060165077447891235} {:color &quot;#ada0a7&quot;, :opacity 0.11830045282840729} {:color &quot;#fcB&quot;, :opacity 0.03281704802066088, :width 7.930099964141846E-4} {:color &quot;#ea8&quot;, :opacity 0.02724725380539894} {:color &quot;#2575eD&quot;, :opacity 0.10529423071420752, :width 0.7238298613810912} {:color &quot;#FbdD95&quot;, :opacity 0.04532443548669107} {:color &quot;#f8A&quot;, :opacity 0.0, :width 3.5511627197265625} {:color &quot;#69f&quot;, :opacity 0.026405811309814453, :width 0.49420166015625} {:color &quot;#3E2&quot;, :opacity 0.001850676468166057, :width 0.001483917236328125} {:color &quot;#da8dFF&quot;, :opacity 0.0052490234375} {:color &quot;#AAc&quot;, :opacity 0.01066291332244873, :width 2.82232666015625} {:color &quot;#C0f6Fd&quot;, :opacity 0.4982452392578125, :width 0.7501602917909622} {:color &quot;#ff9cB0&quot;, :opacity 0.014335036277770996, :width 1.5178537368774414} {:color &quot;#3BE712&quot;, :opacity 0.011474609375, :width 0.004827721961191855} {:color &quot;#3725bA&quot;, :opacity 0.003256559371948242} {:color &quot;#ccC525&quot;, :opacity 0.027677440317347646, :width 0.001953125} {:color &quot;#66d&quot;, :opacity 0.801849365234375, :width 0.0231170654296875} {:color &quot;#1DA&quot;, :opacity 0.0078125} {:color &quot;#ca1759&quot;, :opacity 0.013545516412705183} {:color &quot;#7a8&quot;, :opacity 0.1953125, :width 0.002532958984375} {:color &quot;#9a6Ca3&quot;, :opacity 0.0433197021484375, :width 0.4716796875} {:color &quot;#5AdC78&quot;, :opacity 0.046875, :width 0.23046875} {:color &quot;#def&quot;, :opacity 0.0} {:color &quot;#DeB&quot;, :opacity 0.3826555013656616, :width 0.02363612223416567} {:color &quot;#C80&quot;, :opacity 0.5179110169410706, :width 0.006370842456817627} {:color &quot;#aC0&quot;, :opacity 0.62109375, :width 0.205810546875} {:color &quot;#12A0c7&quot;, :opacity -0.0} {:color &quot;#7Fd&quot;, :opacity 0.004491567611694336, :width 0.004473795040951245} {:color &quot;#46398f&quot;, :opacity 0.0625603161752224} {:color &quot;#531E0e&quot;, :opacity 3.894473775289953E-5} {:color &quot;#ebB&quot;, :opacity 0.49835205078125, :width 0.0823965072631836} {:color &quot;#0FFF43&quot;, :opacity 0.0585174560546875} {:color &quot;#0C5a48&quot;, :opacity 0.0}], :bg &quot;#0C7b72&quot;, :fills [{:color &quot;#eB9d9F&quot;, :opacity 0.375} {:color &quot;#aA0&quot;, :opacity 0.004638671875} {:color &quot;#B31&quot;, :opacity 2.6129186153411865E-5} {:color &quot;#9d83ac&quot;, :opacity -0.0} {:color &quot;#c8e&quot;, :opacity 0.1883888654410839} {:color &quot;#D67&quot;, :opacity 0.0423583984375} {:color &quot;#789&quot;, :opacity 0.015625} {:color &quot;#Ccc&quot;, :opacity 0.4730224609375} {:color &quot;#bDf&quot;, :opacity 6.961915789815976E-5} {:color &quot;#ECf&quot;, :opacity 0.11124420166015625} {:color &quot;#C7c51f&quot;, :opacity 0.25834622606635094} {:color &quot;#5Fe&quot;, :opacity 0.008118999423459172} {:color &quot;#ce9&quot;, :opacity 0.0055119991302490234} {:color &quot;#E30&quot;, :opacity 1.5372226630440584E-7} {:color &quot;#839a6a&quot;, :opacity 0.0} {:color &quot;#8d2D3f&quot;, :opacity 0.004363268613815308} {:color &quot;#3a5202&quot;, :opacity 0.02486610598862171} {:color &quot;#f3A&quot;, :opacity 0.140625} {:color &quot;#3CcDAe&quot;, :opacity 1.782863400876522E-4} {:color &quot;#D8A&quot;, :opacity 6.0239428421482444E-5} {:color &quot;#01Cb3e&quot;, :opacity 3.231465816497803E-4} {:color &quot;#de5fE6&quot;, :opacity 0.005630074094824522} {:color &quot;#b7A&quot;, :opacity 0.16040754318237305} {:color &quot;#7B9&quot;, :opacity 4.8828125E-4} {:color &quot;#d5C&quot;, :opacity 0.1923828125} {:color &quot;#55B&quot;, :opacity 0.0023193359375} {:color &quot;#EC6&quot;, :opacity 0.05224609375} {:color &quot;#409&quot;, :opacity 0.2467041015625} {:color &quot;#460&quot;, :opacity 0.02672732266364619} {:color &quot;#f9fD1C&quot;, :opacity -0.0} {:color &quot;#F0A8b6&quot;, :opacity 0.009731292724609375} {:color &quot;#79efd7&quot;, :opacity 0.106689453125} {:color &quot;#bd0&quot;, :opacity 0.1044921875} {:color &quot;#1C2fCE&quot;, :opacity 9.57787036895752E-4} {:color &quot;#C7eB7f&quot;, :opacity 0.0556640625} {:color &quot;#2b9eAb&quot;, :opacity 9.87321138381958E-4} {:color &quot;#6CE&quot;, :opacity 5.664779200742487E-5} {:color &quot;#F564ac&quot;, :opacity 3.7145798614801606E-7} {:color &quot;#Cc8e12&quot;, :opacity 0.21035686181858182} {:color &quot;#fa71E9&quot;, :opacity 0.056640625} {:color &quot;#c00&quot;, :opacity 0.0031196288009596174} {:color &quot;#Ee8&quot;, :opacity 0.28857421875} {:color &quot;#FF0b48&quot;, :opacity 0.0875244140625} {:color &quot;#58C&quot;, :opacity 0.0} {:color &quot;#FA01B5&quot;, :opacity 0.022500038146972656} {:color &quot;#2dd&quot;, :opacity 0.0028858561418019235} {:color &quot;#8f0&quot;, :opacity 9.1552734375E-4} {:color &quot;#Ca6&quot;, :opacity 9.553767665693158E-4}], :shapes [0 0 15 0 0 78 9 0 2 0 2 11 0 0 2 0 4 0 21 0 56 0 7 0 0 86 2 70 70 0 0 3 9 40 3 3 0 0 23 15 0 15 27 97 7 82]}" height="1200" width="1600" xmlns="http://www.w3.org/2000/svg"><rect fill="#0C7b72" height="1200" width="1600" x="0" y="0"></rect><circle cx="800.0" cy="600.0" fill-opacity="0.2467041015625" fill="#409" id="element75" r="-6080.0" stroke-opacity="1.6178030049474046E-4" stroke-width="0.18901497684419155" stroke="#f13"></circle><polygon fill-opacity="0.05224609375" fill="#EC6" id="element74" points="543.0367843946369,6392.240068034945 25.923032684097052,6322.19225091101 -482.82993317385353,6206.072706377297 -979.1259334400265,6044.816360729205 -1458.9690845376008,5839.721555244697 -1918.4959715571422,5592.43959270374 -2354.006754201804,5304.961442069277 -2761.994955725926,4979.601708375798 -3139.1756950240087,4618.97999689058 -3482.5121345619136,4225.99982159237 -3789.2399312070356,3803.825227784065 -4056.8894930938113,3355.8553170603714 -4283.305863325324,2885.696879740392 -4466.666070419138,2397.135355112744 -4605.493805801789,1894.1043533042057 -4698.671310177366,1380.6539841638987 -4745.448373068117,860.9182481602129 -4745.448373068117,339.0817518397871 -4698.671310177364,-180.6539841638978 -4605.493805801789,-694.1043533042039 -4466.666070419136,-1197.1353551127422 -4283.305863325322,-1685.6968797403897 -4056.8894930938095,-2155.855317060368 -3789.239931207034,-2603.825227784062 -3482.512134561912,-3025.999821592366 -3139.1756950240087,-3418.9799968905772 -2761.9949557259224,-3779.6017083757943 -2354.0067542018023,-4104.961442069272 -1918.4959715571404,-4392.439592703735 -1458.969084537599,-4639.7215552446905 -979.1259334400229,-4844.816360729197 -482.8299331738508,-5006.072706377288 25.92303268409978,-5122.192250910999 543.0367843946378,-5192.240068034933 1064.3478260869551,-5215.652173913055 1585.6588677792715,-5192.240068034933 2102.7726194898114,-5122.192250910997 2611.525585347761,-5006.0727063772865 3107.821585613934,-4844.816360729195 3587.6647367115074,-4639.721555244687 4047.1916237310493,-4392.439592703733 4482.702406375712,-4104.961442069269 4890.690607899832,-3779.6017083757906 5267.871347197916,-3418.9799968905736 5611.20778673582,-3025.9998215923624 5917.935583380941,-2603.82522778406 6185.585145267717,-2155.8553170603664 6412.001515499229,-1685.6968797403879 6595.361722593042,-1197.1353551127413 6734.189457975693,-694.104353304203 6827.366962351268,-180.65398416389598 6874.14402524202,339.081751839788 6874.14402524202,860.9182481602129 6827.366962351268,1380.653984163897 6734.189457975693,1894.104353304203 6595.36172259304,2397.1353551127404 6412.001515499227,2885.696879740387 6185.585145267715,3355.855317060365 5917.935583380939,3803.8252277840584 5611.2077867358175,4225.999821592362 5267.871347197914,4618.979996890572 4890.690607899829,4979.601708375789 4482.702406375709,5304.961442069266 4047.1916237310475,5592.439592703729 3587.664736711506,5839.721555244684 3107.8215856139327,6044.816360729192 2611.525585347761,6206.072706377282 2102.7726194898114,6322.192250910994 1585.6588677792724,6392.2400680349265 1064.347826086956,6415.652173913049" stroke-opacity="6.40869140625E-4" stroke-width="9.658932685852051E-5" stroke="#2dACbe"></polygon><polygon fill-opacity="0.0023193359375" fill="#55B" id="element73" points="831.0805669221545,6128.95642857881 337.4719857439122,6062.092603142327 -148.15584530231263,5951.251219723783 -621.8929364654787,5797.324707968786 -1079.9250352404351,5601.552393642664 -1518.5643364863608,5365.510520308115 -1934.2791744653568,5091.099558338854 -2323.7224577383804,4780.5289034496245 -2683.7586179774607,4436.299087941008 -3011.4888557181876,4061.181647883625 -3304.2744797885316,3658.1968083393344 -3559.7581524986344,3230.5891662848994 -3775.882869537807,2781.801567024919 -3950.9085217637203,2315.447384425801 -4083.42590553807,1835.281428154014 -4172.368068805665,1345.1697121564484 -4217.018901565019,849.0583277892938 -4217.018901565019,350.9416722107062 -4172.368068805663,-145.16971215644753 -4083.42590553807,-635.2814281540132 -3950.9085217637185,-1115.447384425799 -3775.882869537805,-1581.801567024917 -3559.7581524986344,-2030.5891662848971 -3304.27447978853,-2458.1968083393313 -3011.4888557181857,-2861.1816478836226 -2683.7586179774607,-3236.2990879410045 -2323.7224577383786,-3580.528903449622 -1934.279174465355,-3891.0995583388503 -1518.564336486359,-4165.510520308109 -1079.9250352404324,-4401.552393642658 -621.892936465475,-4597.324707968779 -148.1558453023099,-4751.251219723774 337.47198574391496,-4862.092603142317 831.0805669221563,-4928.956428578798 1328.695652173913,-4951.304347826097 1826.3107374256697,-4928.956428578798 2319.919318603912,-4862.092603142315 2805.547149650137,-4751.251219723772 3279.2842408133015,-4597.324707968777 3737.316339588258,-4401.552393642654 4175.955640834184,-4165.5105203081075 4591.670478813179,-3891.0995583388467 4981.113762086204,-3580.528903449618 5341.149922325284,-3236.299087941001 5668.880160066011,-2861.181647883619 5961.665784136353,-2458.1968083393294 6217.149456846458,-2030.5891662848944 6433.2741738856275,-1581.8015670249151 6608.29982611154,-1115.4473844257982 6740.817209885889,-635.2814281540113 6829.7593731534835,-145.16971215644662 6874.410205912837,350.9416722107071 6874.410205912837,849.0583277892938 6829.7593731534835,1345.1697121564466 6740.817209885889,1835.2814281540113 6608.299826111539,2315.4473844257973 6433.274173885626,2781.801567024914 6217.149456846456,3230.589166284893 5961.665784136351,3658.1968083393276 5668.880160066008,4061.181647883617 5341.149922325281,4436.299087941 4981.113762086201,4780.528903449615 4591.670478813177,5091.099558338844 4175.955640834182,5365.510520308104 3737.316339588257,5601.5523936426525 3279.2842408133,5797.324707968773 2805.5471496501364,5951.251219723768 2319.919318603912,6062.092603142311 1826.3107374256706,6128.956428578793 1328.695652173914,6151.3043478260915" stroke-opacity="0.7194976806640625" stroke-width="8.046369266594411E-4" stroke="#BB6BEa"></polygon><polygon fill-opacity="0.1923828125" fill="#d5C" id="element72" points="1593.0434782608718,-4686.956521739135 1593.0434782608709,5886.956521739135" stroke-opacity="0.15527862310409546" stroke-width="2.714237332344055" stroke="#34a2a5"></polygon><polygon fill-opacity="4.8828125E-4" fill="#7B9" id="element71" points="1490.764402190087,5609.20980038319 1126.093613184882,5569.084603479853 765.3246137747219,5502.447190228722 410.3822626664278,5409.653100061694 63.160330877097294,5291.197429599299 -274.48860235365464,5147.7121910960095 -600.7630338755007,4979.962940381417 -913.9221484261652,4788.844692288637 -1212.295106634063,4575.377145362931 -1494.2899596692605,4340.699241328768 -1758.4021429792865,4086.0630883429394 -2003.2225037919961,3812.8272804557873 -2227.4448195553214,3522.449648924118 -2429.8727671997476,3216.479484050683 -2609.4263060395006,2896.54926905008 -2765.147440256922,2564.3659700444705 -2896.2053302246495,2221.7019286607597 -3001.9007253945074,1870.3854058211728 -3081.669695101733,1512.2908271801962 -3135.086637379065,1149.3287822526981 -3161.8665497273905,783.4358305922069 -3161.8665497273905,416.5641694077949 -3135.086637379065,50.67121774730276 -3081.669695101733,-312.29082718019527 -3001.9007253945074,-670.3854058211718 -2896.2053302246495,-1021.7019286607583 -2765.147440256922,-1364.3659700444696 -2609.4263060395006,-1696.5492690500787 -2429.8727671997476,-2016.479484050682 -2227.444819555323,-2322.4496489241174 -2003.222503791998,-2612.8272804557864 -1758.4021429792883,-2886.0630883429376 -1494.2899596692641,-3140.699241328767 -1212.2951066340675,-3375.3771453629297 -913.9221484261689,-3588.844692288637 -600.7630338755025,-3779.962940381417 -274.48860235365737,-3947.7121910960113 63.160330877094566,-4091.1974295992995 410.38226266642505,-4209.653100061697 765.324613774721,-4302.447190228725 1126.0936131848812,-4369.084603479855 1490.764402190086,-4409.209800383193 1857.391304347827,-4422.608695652171 2224.018206505567,-4409.209800383193 2588.6889955107727,-4369.084603479855 2949.4579949209333,-4302.447190228725 3304.400346029228,-4209.653100061697 3651.622277818559,-4091.1974295993014 3989.271211049311,-3947.712191096013 4315.545642571156,-3779.9629403814206 4628.704757121823,-3588.8446922886387 4927.0777153297195,-3375.3771453629315 5209.072568364918,-3140.6992413287708 5473.184751674943,-2886.0630883429412 5718.005112487654,-2612.8272804557882 5942.227428250979,-2322.449648924119 6144.655375895403,-2016.4794840506838 6324.208914735156,-1696.5492690500814 6479.930048952579,-1364.3659700444714 6610.987938920307,-1021.701928660761 6716.683334090166,-670.3854058211737 6796.4523037973895,-312.2908271801971 6849.869246074722,50.67121774730094 6876.649158423049,416.5641694077922 6876.649158423049,783.4358305922051 6849.869246074723,1149.3287822526972 6796.452303797391,1512.2908271801953 6716.683334090167,1870.3854058211714 6610.98793892031,2221.701928660759 6479.930048952582,2564.3659700444705 6324.20891473516,2896.54926905008 6144.655375895407,3216.4794840506834 5942.2274282509825,3522.449648924119 5718.005112487657,3812.827280455789 5473.184751674946,4086.0630883429417 5209.072568364921,4340.699241328771 4927.077715329723,4575.377145362934 4628.704757121825,4788.844692288641 4315.54564257116,4979.962940381422 3989.2712110493144,5147.712191096016 3651.622277818562,5291.197429599305 3304.40034602923,5409.653100061702 2949.457994920935,5502.4471902287305 2588.6889955107736,5569.084603479862 2224.018206505568,5609.2098003832 1857.391304347827,5622.6086956521785" stroke-opacity="3.0517578125E-5" stroke-width="0.01003660545393359" stroke="#29ABEb"></polygon><circle cx="2121.7391" cy="600.0" fill-opacity="0.16040754318237305" fill="#b7A" id="element70" r="-4758.2609" stroke-opacity="0.007111006882041693" stroke="#8D8"></circle><circle cx="2386.087" cy="600.0" fill-opacity="0.005630074094824522" fill="#de5fE6" id="element69" r="-4493.913" stroke-opacity="0.34375" stroke-width="0.005859375" stroke="#aBCCaf"></circle><polygon fill-opacity="3.231465816497803E-4" fill="#01Cb3e" id="element68" points="-656.3724614995654,3237.090779339898 -1473.0864042194717,-341.1668024030578 815.2952112453895,-3210.706585632497 4485.574353972006,-3210.706585632496 6773.955969436867,-341.16680240305504 5957.242026716958,3237.090779339898 2650.434782608698,4829.565217391308" stroke-opacity="0.08510208129882812" stroke="#3DD"></polygon><circle cx="2914.7826" cy="600.0" fill-opacity="6.0239428421482444E-5" fill="#D8A" id="element67" r="-3965.2174" stroke-opacity="0.0022032497712416443" stroke="#B94"></circle><polygon fill-opacity="1.782863400876522E-4" fill="#3CcDAe" id="element66" points="2764.764512786368,4277.599274178829 2355.6094826799354,4208.0810384746555 1956.81070636418,4093.189090254282 1573.3833098397126,3934.3682624284406 1210.1491150875854,3733.6158190570327 871.6760028601948,3493.4563385947345 562.2204689304754,3216.9099658521345 285.6740961878759,2907.454431922415 45.51461572557764,2568.981319695025 -155.2378276458303,2205.7471249428977 -314.05865547167105,1822.3197284184303 -428.95060369204384,1423.5209521026754 -498.46883939621694,1014.3659219962433 -521.7391304347902,600.0 -498.46883939621694,185.63407800375717 -428.95060369204293,-223.52095210267544 -314.05865547167014,-622.3197284184307 -155.23782764582847,-1005.7471249428982 45.51461572557946,-1368.9813196950254 285.6740961878786,-1707.454431922415 562.2204689304781,-2016.9099658521345 871.6760028601975,-2293.456338594733 1210.1491150875872,-2533.6158190570313 1573.3833098397145,-2734.3682624284384 1956.810706364181,-2893.189090254279 2355.6094826799363,-3008.081038474652 2764.764512786369,-3077.599274178825 3179.1304347826112,-3100.8695652173983 3593.496356778854,-3077.599274178825 4002.651386885286,-3008.081038474651 4401.45016320104,-2893.1890902542773 4784.877559725508,-2734.3682624284374 5148.111754477634,-2533.6158190570286 5486.584866705024,-2293.4563385947304 5796.040400634743,-2016.9099658521309 6072.586773377341,-1707.4544319224115 6312.746253839639,-1368.9813196950217 6513.498697211047,-1005.7471249428954 6672.319525036888,-622.3197284184289 6787.21147325726,-223.52095210267362 6856.729708961434,185.63407800375808 6880.000000000007,600.0 6856.729708961433,1014.3659219962428 6787.211473257259,1423.5209521026745 6672.319525036886,1822.3197284184284 6513.4986972110455,2205.7471249428954 6312.7462538396385,2568.981319695022 6072.586773377339,2907.4544319224115 5796.040400634741,3216.90996585213 5486.584866705021,3493.456338594729 5148.111754477632,3733.615819057027 4784.877559725505,3934.3682624284347 4401.450163201039,4093.1890902542755 4002.6513868852844,4208.081038474648 3593.496356778853,4277.599274178821 3179.130434782611,4300.869565217395" stroke-opacity="2.0575523376464844E-4" stroke-width="1.0" stroke="#aB1e8b"></polygon><circle cx="3443.4783" cy="600.0" fill-opacity="0.140625" fill="#f3A" id="element65" r="-3436.5217" stroke-opacity="0.0390625" stroke-width="0.04023110866546631" stroke="#06E"></circle><polygon fill-opacity="0.02486610598862171" fill="#3a5202" id="element64" points="2772.811411955674,3631.2431265285577 1920.876894072966,3220.9730858302164 1227.7206538753317,2577.818084504922 754.9326651703886,1758.9252668596603 544.5222155504853,837.0568533941532 615.1851968354003,-105.87510180229083 960.6428930385837,-986.086956521739 1550.199871836252,-1725.3680247262664 2331.471408434045,-2258.0299392243705 3235.0380982515817,-2536.743351364582 4180.614075661468,-2536.743351364582 5084.180765479005,-2258.0299392243705 5865.452302076798,-1725.3680247262673 6455.009280874467,-986.0869565217399 6800.46697707765,-105.87510180229174 6871.129958362565,837.0568533941528 6660.719508742663,1758.9252668596603 6187.9315200377205,2577.818084504923 5494.775279840085,3220.9730858302187 4642.840761957376,3631.24312652856 3707.8260869565247,3772.1739130434808" stroke-opacity="0.030343055725097656" stroke-width="1.9889907836914062" stroke="#EdEf6F"></polygon><circle cx="-1843.4783" cy="600.0" fill-opacity="0.004363268613815308" fill="#8d2D3f" id="element63" r="-2907.8261" stroke-opacity="0.509765625" stroke-width="2.0316243171691895E-4" stroke="#bb1AfB"></circle><polygon fill-opacity="0.0" fill="#839a6a" id="element62" points="1064.347826086956,599.9999999999995 3972.173913043481,-2307.8260869565247 6880.0000000000055,600.0000000000005 3972.1739130434808,3507.8260869565247" stroke-opacity="0.037227630615234375" stroke="#1f6"></polygon><circle cx="-1050.4348" cy="600.0" fill-opacity="1.5372226630440584E-7" fill="#E30" id="element61" r="-2643.4783" stroke-opacity="9.347931481897831E-4" stroke-width="0.0126953125" stroke="#c2a24A"></circle><polygon fill-opacity="0.0055119991302490234" fill="#ce9" id="element60" points="4236.521739130439,-2043.4782608695673 4236.521739130438,3243.4782608695673" stroke-opacity="0.22535979747772217" stroke="#a17"></polygon><circle cx="-257.3913" cy="600.0" fill-opacity="0.008118999423459172" fill="#5Fe" id="element59" r="-2379.1304" stroke-opacity="0.19458167254924774" stroke="#e5BB8d"></circle><circle cx="4500.8696" cy="600.0" fill-opacity="0.25834622606635094" fill="#C7c51f" id="element58" r="-2379.1304" stroke-opacity="0.00531768798828125" stroke-width="1.58984375" stroke="#b03"></circle><polygon fill-opacity="0.11124420166015625" fill="#ECf" id="element57" points="-607.6856243930574,2379.0683407351603 -1388.0217501758189,1478.5124448874676 -1557.6049970908093,299.0350550603207 -1062.5938824604846,-784.8880912651616 -60.150937598571545,-1429.1190537656175 1131.4552854246592,-1429.1190537656175 2133.898230286572,-784.8880912651603 2628.909344916896,299.03505506032207 2459.3260980019045,1478.5124448874685 1678.9899722191428,2379.0683407351603 535.6521739130435,2714.782608695654" stroke-opacity="0.46875" stroke-width="0.39554284512996674" stroke="#19f8e9"></polygon><polygon fill-opacity="6.961915789815976E-5" fill="#bDf" id="element56" points="4765.217391304352,-1514.7826086956538 4765.217391304352,2714.782608695654" stroke-opacity="0.252471923828125" stroke-width="3.4940332557198417E-4" stroke="#4AD"></polygon><circle cx="-2372.1739" cy="600.0" fill-opacity="0.4730224609375" fill="#Ccc" id="element55" r="-1850.4348" stroke-opacity="0.08725827932357788" stroke-width="3.294876159998239E-5" stroke="#FC8eeb"></circle><polygon fill-opacity="0.015625" fill="#789" id="element54" points="1328.6956521739128,-1250.4347826086973 1328.6956521739125,2450.4347826086973" stroke-opacity="0.0" stroke="#0C5a48"></polygon><circle cx="5029.5652" cy="600.0" fill-opacity="0.0423583984375" fill="#D67" id="element53" r="-1850.4348" stroke-opacity="0.0585174560546875" stroke="#0FFF43"></circle><polygon fill-opacity="0.1883888654410839" fill="#c8e" id="element52" points="-2069.9518261463045,1815.0130993469706 -2612.4255143428436,875.4211096212875 -2424.0263795676683,-193.04347826087042 -1592.9084708052358,-890.4342089682591 -507.96109441215754,-890.4342089682586 323.1568143502742,-193.04347826086996 511.55594912544956,875.421109621288 -30.917739071089727,1815.0130993469713 -1050.434782608697,2186.0869565217404" stroke-opacity="0.49835205078125" stroke-width="0.0823965072631836" stroke="#ebB"></polygon><polygon fill-opacity="-0.0" fill="#9d83ac" id="element51" points="1994.1121553571234,2180.9437652493993 1867.312890187343,2165.547547001359 1742.1636768169508,2139.998152160981 1619.4761559183585,2104.461278357915 1500.0460031436696,2059.1673958553943 1384.6477688627506,2004.4102528621415 1274.029854906858,1940.544970462512 1168.9096608955847,1867.9857395199938 1069.9689316250306,1787.203134490517 977.8493356911977,1698.7210615665344 893.148304022915,1603.113360944324 816.4151553130127,1501.0000852501148 748.147533475807,1393.0434782608722 688.7881802353531,1279.9436799992811 638.7220637754754,1162.434186057032 598.2738820733648,1041.277090594444 567.7059571086056,917.2581438673958 547.2165336044718,791.1816563353989 536.9384933348265,663.8652823996279 536.9384933348265,536.1347176003696 547.2165336044727,408.8183436645986 567.705957108607,282.7418561326019 598.2738820733666,158.72290940555376 638.7220637754767,37.56581394296609 688.7881802353545,-79.94367999928272 748.1475334758084,-193.04347826087405 816.415155313015,-301.0000852501162 893.1483040229173,-403.113360944325 977.8493356911995,-498.7210615665349 1069.9689316250324,-587.2031344905167 1168.909660895587,-667.9857395199933 1274.0298549068611,-740.5449704625116 1384.6477688627533,-804.4102528621406 1500.0460031436728,-859.1673958553929 1619.4761559183612,-904.4612783579128 1742.1636768169533,-939.9981521609784 1867.3128901873456,-965.5475470013562 1994.1121553571259,-980.9437652493962 2121.7391304347857,-986.0869565217445 2249.366105512445,-980.9437652493957 2376.1653706822253,-965.5475470013557 2501.3145840526176,-939.9981521609775 2624.0021049512097,-904.4612783579119 2743.4322577258977,-859.1673958553911 2858.8304920068167,-804.4102528621383 2969.448405962709,-740.5449704625094 3074.5685999739826,-667.9857395199911 3173.5093292445363,-587.2031344905145 3265.6289251783687,-498.72106156653217 3350.329956846651,-403.11336094432227 3427.063105556553,-301.000085250113 3495.330727393759,-193.04347826087087 3554.690080634212,-79.94367999927954 3604.7561970940897,37.56581394296927 3645.2043787961998,158.72290940555672 3675.772303760959,282.7418561326042 3696.2617272650928,408.8183436646011 3706.539767534738,536.1347176003717 3706.539767534738,663.8652823996295 3696.2617272650923,791.1816563354002 3675.772303760958,917.2581438673967 3645.2043787961984,1041.2770905944444 3604.7561970940883,1162.4341860570319 3554.69008063421,1279.9436799992804 3495.330727393757,1393.0434782608713 3427.063105556551,1501.0000852501132 3350.329956846648,1603.1133609443218 3265.6289251783664,1698.7210615665315 3173.5093292445335,1787.2031344905135 3074.56859997398,1867.9857395199897 2969.448405962706,1940.5449704625075 2858.8304920068144,2004.4102528621365 2743.4322577258954,2059.167395855389 2624.002104951207,2104.461278357909 2501.3145840526154,2139.9981521609743 2376.1653706822235,2165.547547001352 2249.3661055124435,2180.9437652493916 2121.7391304347843,2186.0869565217404" stroke-opacity="3.894473775289953E-5" stroke="#531E0e"></polygon><circle cx="5293.913" cy="600.0" fill-opacity="2.6129186153411865E-5" fill="#B31" id="element50" r="-1586.087" stroke-opacity="0.0625603161752224" stroke="#46398f"></circle><circle cx="-2372.1739" cy="600.0" fill-opacity="0.004638671875" fill="#aA0" id="element49" r="-1321.7391" stroke-opacity="0.004491567611694336" stroke-width="0.004473795040951245" stroke="#7Fd"></circle><polygon fill-opacity="0.375" fill="#eB9d9F" id="element48" points="-266.2953891088839,1807.468778797178 -710.9392475875129,1484.416105796057 -985.7442650162038,1008.4398534347138 -1043.1941573563277,461.84063985492776 -873.3553163063893,-60.86956521739171 -505.5944204213565,-469.3094186521055 -3.500669602603921,-692.8559592307704 546.1093652547779,-692.8559592307704 1048.2031160735305,-469.3094186521055 1415.9640119585633,-60.86956521739171 1585.8028530085016,461.8406398549273 1528.352960668378,1008.4398534347133 1253.5479432396874,1484.4161057960566 808.9040847610582,1807.4687787971777 271.3043478260872,1921.7391304347836" stroke-opacity="-0.0" stroke="#12A0c7"></polygon><circle cx="2914.7826" cy="600.0" fill-opacity="9.553767665693158E-4" fill="#Ca6" id="element47" r="-1321.7391" stroke-opacity="0.62109375" stroke-width="0.205810546875" stroke="#aC0"></circle><circle cx="5558.2609" cy="600.0" fill-opacity="9.1552734375E-4" fill="#8f0" id="element46" r="-1321.7391" stroke-opacity="0.5179110169410706" stroke-width="0.006370842456817627" stroke="#C80"></circle><polygon fill-opacity="0.0028858561418019235" fill="#2dd" id="element45" points="-2717.464253434072,1654.288708034285 -2797.9317648783963,1644.9991263625245 -2877.452058109756,1629.5770742916338 -2955.5584764276155,1608.113054555474 -3031.792660311634,1580.7330265566493 -3105.7072372575885,1547.5976671866463 -3176.8684471371216,1508.9014279099447 -3244.858687674649,1464.871393645503 -3309.2789651035655,1415.7659501421585 -3369.7512356203215,1361.8732676683105 -3425.920623895783,1303.5096099141979 -3477.457505624774,1241.0174780308103 -3524.0594418925693,1174.7636006969435 -3565.452954006704,1105.1367820094886 -3601.3951283786855,1032.545619826391 -3631.675042037522,957.4161079519477 -3656.1150004095853,880.1891362357749 -3674.5715801010256,801.3179032558585 -3686.936470563277,721.2652567690917 -3693.137109702425,640.5009775365944 -3693.137109702425,559.4990224634066 -3686.936470563277,478.73474323090954 -3674.5715801010256,398.68209674414265 -3656.1150004095853,319.8108637642265 -3631.675042037522,242.5838920480537 -3601.3951283786855,167.4543801736104 -3565.452954006704,94.86321799051257 -3524.0594418925693,25.23639930305785 -3477.457505624774,-41.017478030809116 -3425.920623895783,-103.50960991419674 -3369.7512356203215,-161.8732676683096 -3309.278965103566,-215.7659501421581 -3244.8586876746494,-264.8713936455026 -3176.868447137122,-308.90142790994423 -3105.707237257589,-347.59766718664605 -3031.792660311634,-380.73302655664907 -2955.558476427616,-408.1130545554738 -2877.4520581097563,-429.57707429163383 -2797.9317648783963,-444.99912636252475 -2717.4642534340724,-454.28870803428526 -2636.5217391304386,-457.39130434782555 -2555.5792248268053,-454.28870803428526 -2475.111713382481,-444.9991263625252 -2395.5914201511214,-429.5770742916343 -2317.485001833262,-408.1130545554747 -2241.2508179492434,-380.73302655665 -2167.3362410032887,-347.59766718664696 -2096.175031123755,-308.90142790994514 -2028.1847905862278,-264.87139364550353 -1963.764513157311,-215.76595014215923 -1903.2922426405553,-161.87326766831097 -1847.1228543650936,-103.50960991419834 -1795.5859726361023,-41.01747803081071 -1748.984036368307,25.236399303056487 -1707.5905242541724,94.86321799051143 -1671.6483498821908,167.45438017360925 -1641.3684362233541,242.58389204805258 -1616.9284778512913,319.81086376422536 -1598.471898159851,398.68209674414175 -1586.1070076975993,478.73474323090863 -1579.9063685584515,559.4990224634062 -1579.9063685584515,640.5009775365941 -1586.1070076975993,721.2652567690914 -1598.471898159851,801.3179032558583 -1616.928477851291,880.1891362357748 -1641.3684362233541,957.4161079519477 -1671.6483498821908,1032.545619826391 -1707.5905242541724,1105.1367820094888 -1748.984036368307,1174.7636006969437 -1795.5859726361023,1241.0174780308107 -1847.1228543650934,1303.5096099141983 -1903.2922426405548,1361.873267668311 -1963.7645131573106,1415.7659501421595 -2028.1847905862273,1464.8713936455038 -2096.1750311237547,1508.9014279099456 -2167.336241003288,1547.5976671866472 -2241.250817949243,1580.7330265566502 -2317.485001833261,1608.113054555475 -2395.591420151121,1629.577074291635 -2475.111713382481,1644.9991263625259 -2555.579224826805,1654.2887080342864 -2636.5217391304386,1657.391304347827" stroke-opacity="0.3826555013656616" stroke-width="0.02363612223416567" stroke="#DeB"></polygon><polygon fill-opacity="0.022500038146972656" fill="#FA01B5" id="element44" points="-1348.44094146185,1259.2726948349746 -1552.6194271418267,364.70829939923556 -980.5240232756113,-352.67664640812427 -62.95423759395703,-352.67664640812404 509.14116627225803,364.70829939923624 304.962680592281,1259.2726948349746 -521.7391304347842,1657.391304347827" stroke-opacity="0.0" stroke="#def"></polygon><polygon fill-opacity="0.0" fill="#58C" id="element43" points="1524.5987311797276,1655.1737710478735 1456.4410651540752,1648.5304722533306 1388.8563571216887,1637.4892722680486 1322.1280808354027,1622.0964817218544 1256.5361178756777,1602.4166633276716 1192.3555837299866,1578.5323610830658 1129.8556738628488,1550.5437540520331 1069.298534616502,1518.5682361791905 1010.9381636780392,1482.739923898775 955.01934472484,1443.2090936037098 901.7766207167576,1400.1415513341872 851.4333101414375,1353.717937329515 804.20057033897,1304.132968360176 760.2765118346247,1251.5946210180223 719.8453673944582,1196.3232593901744 683.0767192890694,1138.5507107754556 650.124788006621,1078.519293320137 621.1277853985175,1016.4807996514188 596.2073349708689,952.695440771649 575.467961753237,887.4307546429493 558.9966538843387,820.9604840400254 546.8624977535601,753.5634283778393 539.1163882286323,685.522274329971 535.7908151848651,617.1224101424705 536.8997272313227,548.6507286163744 542.4384732055082,480.3944237795947 552.3838216819554,412.63978629536086 566.6940584129015,345.67100265968315 585.3091612923372,279.7689632244278 608.1510521095813,215.21008404556483 635.1239240364273,152.26514749816715 666.1146434742784,91.19816652102736 700.993224575775,32.26527725464007 739.613374450614,-24.286335282783966 781.8131067687684,-78.21947397518738 827.4154211874525,-129.3079244958035 876.2290457520685,-177.33740412865632 928.0492391572589,-222.1064605447416 982.658649503091,-263.42731676310245 1039.828225944463,-301.1266587527459 1099.318179409946,-335.04636237191994 1160.8789883604854,-365.04415659571464 1224.2524453694484,-390.99422025018475 1289.1727401343055,-412.7877097500791 1355.367574377415,-430.3332156266615 1422.5593039596297,-443.5571459307912 1490.4661034163043,-452.40403490313156 1558.8031480312359,-456.8367756168218 1627.283808490507,-456.8367756168218 1695.6208531054385,-452.40403490313156 1763.527652562113,-443.5571459307912 1830.7193821443275,-430.3332156266615 1896.9142163874371,-412.7877097500791 1961.8345111522945,-390.99422025018475 2025.2079681612572,-365.04415659571464 2086.7687771117967,-335.04636237191994 2146.2587305772795,-301.1266587527457 2203.4283070186516,-263.4273167631022 2258.037717364484,-222.1064605447416 2309.857910769674,-177.33740412865654 2358.6715353342906,-129.30792449580372 2404.2738497529745,-78.21947397518761 2446.473582071129,-24.286335282783966 2485.0937319459676,32.26527725464007 2519.9723130474645,91.19816652102759 2550.9630324853156,152.26514749816715 2577.9359044121616,215.21008404556483 2600.7777952294055,279.7689632244278 2619.3928981088416,345.6710026596834 2633.7031348397877,412.6397862953611 2643.648483316235,480.3944237795952 2649.187229290421,548.6507286163751 2650.2961413368785,617.1224101424714 2646.9705682931112,685.5222743299719 2639.224458768183,753.5634283778404 2627.0903026374044,820.9604840400268 2610.618994768506,887.4307546429505 2589.879621550874,952.6954407716505 2564.959171123225,1016.4807996514203 2535.962168515122,1078.5192933201386 2503.0102372326737,1138.5507107754574 2466.241589127285,1196.3232593901762 2425.8104446871184,1251.594621018024 2381.886386182773,1304.1329683601778 2334.6536463803054,1353.717937329517 2284.310335804985,1400.1415513341894 2231.067611796903,1443.209093603712 2175.148792843703,1482.7399238987775 2116.7884219052403,1518.5682361791933 2056.231282658893,1550.5437540520359 1993.7313727917553,1578.5323610830687 1929.5508386460638,1602.4166633276745 1863.9588756863386,1622.0964817218573 1797.2305994000526,1637.4892722680518 1729.6458913676656,1648.5304722533338 1661.4882253420133,1655.1737710478767 1593.0434782608709,1657.391304347827" stroke-opacity="0.046875" stroke-width="0.23046875" stroke="#5AdC78"></polygon><polygon fill-opacity="0.0875244140625" fill="#FF0b48" id="element42" points="3463.974870588866,1628.8891848913615 3233.269736414123,1544.9193831593648 3028.1480579314534,1410.0087328979803 2859.667997921626,1231.43030218312 2736.9123600292087,1018.8113004379258 2666.498932467094,783.6140730808584 2652.223721340992,538.5181635172705 2694.856306977712,296.73675567244686 2792.0983556505444,71.30434782608654 2938.7075233453706,-125.62594056380885 3126.780071883394,-283.43754667663575 3346.176961492166,-393.6228059788391 3585.0704490641074,-450.2416026210458 3830.581724848942,-450.2416026210458 4069.4752124208844,-393.6228059788391 4288.872102029655,-283.4375466766355 4476.944650567679,-125.62594056380863 4623.553818262505,71.304347826087 4720.7958669353375,296.7367556724471 4763.428452572058,538.5181635172708 4749.153241445955,783.6140730808587 4678.739813883841,1018.8113004379262 4555.984175991423,1231.4303021831206 4387.504115981596,1410.008732897981 4182.382437498927,1544.9193831593652 3951.6773033241834,1628.8891848913622 3707.8260869565247,1657.391304347827" stroke-opacity="0.0433197021484375" stroke-width="0.4716796875" stroke="#9a6Ca3"></polygon><polygon fill-opacity="0.28857421875" fill="#Ee8" id="element41" points="5392.528906104202,1565.9750230377424 5036.813819321298,1307.5328846368457 4816.969805378346,926.751882747771 4771.009891506246,489.47251188394216 4906.880964346197,71.30434782608654 5201.089681054224,-255.44753492168434 5602.764681709225,-434.2847673846163 6042.452709595131,-434.2847673846163 6444.1277102501335,-255.44753492168434 6738.33642695816,71.30434782608654 6874.20749979811,489.47251188394193 6828.247585926011,926.7518827477707 6608.403571983059,1307.5328846368452 6252.688485200155,1565.9750230377422 5822.6086956521785,1657.391304347827" stroke-opacity="0.1953125" stroke-width="0.002532958984375" stroke="#7a8"></polygon><circle cx="-3429.5652" cy="600.0" fill-opacity="0.0031196288009596174" fill="#c00" id="element40" r="-793.0435" stroke-opacity="0.013545516412705183" stroke="#ca1759"></circle><polygon fill-opacity="0.056640625" fill="#fa71E9" id="element39" points="-2166.038103030551,1324.4812672783069 -2432.824418117729,1130.6496634776342 -2597.707428574943,845.0639120608282 -2632.177363979017,517.1043839129566 -2530.2740593490544,203.4782608695648 -2309.6175218180347,-41.585651191263196 -2008.361271326783,-175.71357553846224 -1678.595250412354,-175.71357553846224 -1377.3389999211026,-41.585651191263196 -1156.6824623900827,203.4782608695648 -1054.7791577601197,517.1043839129565 -1089.249093164194,845.063912060828 -1254.1321036214083,1130.649663477634 -1520.9184187085857,1324.4812672783066 -1843.4782608695684,1393.0434782608702" stroke-opacity="0.0078125" stroke="#1DA"></polygon><polygon fill-opacity="0.21035686181858182" fill="#Cc8e12" id="element38" points="-471.35187416974475,1363.6352748358195 -669.4439673324484,1277.591736475128 -836.9759994970866,1141.2943187960109 -961.5228862460581,964.8515777485312 -1033.8475547532862,761.3494642643499 -1048.5860152189325,545.8807991403656 -1004.6451834542308,334.42590756527056 -905.2839499352385,142.66743150542743 -757.8714828046623,-15.17278010646146 -573.3406903824118,-127.38844084606376 -365.377377370242,-185.65702850881212 -149.40523132541261,-185.65702850881212 58.55808168675736,-127.38844084606376 243.08887410900775,-15.172780106461914 390.5013412395844,142.66743150542675 489.86257475857684,334.4259075652699 533.8034065232791,545.8807991403652 519.0649460576328,761.3494642643496 446.7402775504048,964.8515777485313 322.19339080143345,1141.2943187960113 154.66135863679528,1277.5917364751288 -43.43073452590863,1363.6352748358206 -257.39130434782714,1393.0434782608702" stroke-opacity="0.801849365234375" stroke-width="0.0231170654296875" stroke="#66d"></polygon><circle cx="1328.6957" cy="600.0" fill-opacity="3.7145798614801606E-7" fill="#F564ac" id="element37" r="-793.0435" stroke-opacity="0.027677440317347646" stroke-width="0.001953125" stroke="#ccC525"></circle><circle cx="2914.7826" cy="600.0" fill-opacity="5.664779200742487E-5" fill="#6CE" id="element36" r="-793.0435" stroke-opacity="0.003256559371948242" stroke="#3725bA"></circle><polygon fill-opacity="9.87321138381958E-4" fill="#2b9eAb" id="element35" points="3814.073766737909,203.47826086956456 5187.66536369688,203.47826086956502 4500.869565217395,1393.0434782608702" stroke-opacity="0.011474609375" stroke-width="0.004827721961191855" stroke="#3BE712"></polygon><polygon fill-opacity="0.0556640625" fill="#C7eB7f" id="element34" points="5400.16072325965,203.47826086956456 6773.752320218621,203.47826086956502 6086.9565217391355,1393.0434782608702" stroke-opacity="0.014335036277770996" stroke-width="1.5178537368774414" stroke="#ff9cB0"></polygon><polygon fill-opacity="9.57787036895752E-4" fill="#1C2fCE" id="element33" points="-4305.314917169099,1122.1865313755172 -4385.984637026062,1102.8194451369168 -4462.631498992738,1071.0712753969815 -4533.368202951155,1027.7237674608425 -4596.452976488195,973.8442808360188 -4650.332463113019,910.7595072989775 -4693.679971049158,840.0228033405607 -4725.428140789094,763.3759413738853 -4744.795227027694,682.706221516922 -4751.304347826091,599.9999999999999 -4744.795227027694,517.2937784830777 -4725.428140789094,436.62405862611433 -4693.679971049158,359.9771966594391 -4650.332463113019,289.2404927010223 -4596.452976488195,226.15571916398108 -4533.368202951155,172.27623253915738 -4462.631498992738,128.9287246030185 -4385.984637026062,97.18055486308322 -4305.314917169098,77.81346862448277 -4222.608695652177,71.30434782608609 -4139.902474135254,77.81346862448277 -4059.232754278291,97.18055486308322 -3982.5858923116157,128.92872460301874 -3911.849188353199,172.2762325391576 -3848.764414816158,226.15571916398142 -3794.8849281913344,289.2404927010226 -3751.5374202551957,359.9771966594394 -3719.78925051526,436.62405862611456 -3700.4221642766597,517.2937784830779 -3693.913043478263,600.0 -3700.4221642766597,682.7062215169221 -3719.7892505152604,763.3759413738854 -3751.5374202551957,840.0228033405607 -3794.8849281913344,910.7595072989775 -3848.764414816158,973.8442808360186 -3911.849188353199,1027.7237674608423 -3982.585892311616,1071.071275396981 -4059.2327542782914,1102.8194451369163 -4139.902474135255,1122.1865313755168 -4222.608695652177,1128.6956521739135" stroke-opacity="0.4982452392578125" stroke-width="0.7501602917909622" stroke="#C0f6Fd"></polygon><polygon fill-opacity="0.1044921875" fill="#bd0" id="element32" points="-3505.0564058168857,1005.0043664489901 -3685.880968549065,691.8070365404292 -3623.08125695734,335.65217391304327 -3346.041954036529,103.18859701058022 -2984.39282857217,103.18859701058045 -2707.353525651359,335.6521739130434 -2644.553814059634,691.8070365404294 -2825.378376791814,1005.0043664489905 -3165.21739130435,1128.6956521739135" stroke-opacity="0.01066291332244873" stroke-width="2.82232666015625" stroke="#AAc"></polygon><polygon fill-opacity="0.106689453125" fill="#79efd7" id="element31" points="-2565.689952609515,335.65217391304304 -1649.9622213035336,335.6521739130434 -2107.8260869565243,1128.6956521739135" stroke-opacity="0.0052490234375" stroke="#da8dFF"></polygon><circle cx="-1050.4348" cy="600.0" fill-opacity="0.009731292724609375" fill="#F0A8b6" id="element30" r="-528.6957" stroke-opacity="0.001850676468166057" stroke-width="0.001483917236328125" stroke="#3E2"></circle><circle cx="6.9565" cy="600.0" fill-opacity="-0.0" fill="#f9fD1C" id="element29" r="-528.6957" stroke-opacity="0.026405811309814453" stroke-width="0.49420166015625" stroke="#69f"></circle><polygon fill-opacity="0.02672732266364619" fill="#460" id="element28" points="1016.9559132058366,1126.5672789122675 969.9455721412421,1120.1992955373644 923.695302517792,1109.642973307027 878.5774843117763,1094.9833055208367 834.9553796665423,1076.3383232040633 793.1802081193113,1053.858144791249 753.5883187879783,1027.7237674608432 716.4984822857856,998.1456098523452 682.2093241677779,965.3618178991436 650.996920573423,929.6363474174881 623.1125754238665,891.2568388894604 598.7807970705232,850.5323015509427 578.1974906858403,807.7906254309446 561.528380950039,763.3759413738858 548.9076777334344,717.6458503003823 540.436995517473,670.9685440148999 536.1845352546773,623.7198407418375 536.1845352546773,576.2801592581625 540.436995517473,529.0314559851003 548.9076777334344,482.3541496996178 561.5283809500393,436.62405862611433 578.1974906858404,392.2093745690555 598.7807970705234,349.4676984490575 623.1125754238666,308.74316111053986 650.9969205734232,270.36365258251215 682.209324167778,234.63818210085674 716.4984822857858,201.85439014765518 753.5883187879786,172.27623253915715 793.1802081193115,146.1418552087515 834.9553796665425,123.66167679593741 878.5774843117766,105.0166944791639 923.6953025177922,90.35702669297393 969.9455721412423,79.80070446263653 1016.9559132058367,73.43272108773363 1064.3478260869565,71.30434782608609 1111.7397389680762,73.43272108773363 1158.7500800326707,79.80070446263676 1205.0003496561205,90.35702669297416 1250.1181678621363,105.01669447916413 1293.7402725073703,123.66167679593764 1335.5154440546012,146.14185520875174 1375.1073333859342,172.2762325391575 1412.197169888127,201.85439014765552 1446.4863280061345,234.63818210085708 1477.6987316004895,270.3636525825125 1505.583076750046,308.7431611105401 1529.9148551033893,349.4676984490577 1550.4981614880721,392.20937456905574 1567.1672712238733,436.62405862611445 1579.787974440478,482.354149699618 1588.2586566564394,529.0314559851004 1592.5111169192348,576.2801592581626 1592.5111169192348,623.7198407418375 1588.2586566564394,670.9685440148996 1579.787974440478,717.6458503003821 1567.167271223873,763.3759413738854 1550.498161488072,807.7906254309441 1529.914855103389,850.5323015509422 1505.5830767500456,891.2568388894598 1477.6987316004893,929.6363474174873 1446.4863280061343,965.3618178991428 1412.1971698881266,998.1456098523443 1375.107333385934,1027.7237674608423 1335.5154440546012,1053.858144791248 1293.74027250737,1076.3383232040621 1250.118167862136,1094.9833055208355 1205.0003496561205,1109.6429733070256 1158.7500800326707,1120.199295537363 1111.7397389680762,1126.567278912266 1064.3478260869565,1128.6956521739135" stroke-opacity="0.0" stroke-width="3.5511627197265625" stroke="#f8A"></polygon><polygon fill-opacity="0.2467041015625" fill="#409" id="element27" points="2074.3472175536635,1126.5672789122675 2027.336876489069,1120.1992955373644 1981.086606865619,1109.642973307027 1935.9687886596032,1094.9833055208367 1892.3466840143692,1076.3383232040633 1850.5715124671383,1053.858144791249 1810.9796231358052,1027.7237674608432 1773.8897866336124,998.1456098523452 1739.600628515605,965.3618178991436 1708.38822492125,929.6363474174881 1680.5038797716934,891.2568388894604 1656.1721014183502,850.5323015509427 1635.5887950336673,807.7906254309446 1618.919685297866,763.3759413738858 1606.2989820812613,717.6458503003823 1597.8282998652999,670.9685440148999 1593.5758396025042,623.7198407418375 1593.5758396025042,576.2801592581625 1597.8282998652999,529.0314559851003 1606.2989820812613,482.3541496996178 1618.9196852978662,436.62405862611433 1635.5887950336673,392.2093745690555 1656.1721014183504,349.4676984490575 1680.5038797716934,308.74316111053986 1708.3882249212502,270.36365258251215 1739.600628515605,234.63818210085674 1773.8897866336129,201.85439014765518 1810.9796231358055,172.27623253915715 1850.5715124671383,146.1418552087515 1892.3466840143694,123.66167679593741 1935.9687886596034,105.0166944791639 1981.0866068656192,90.35702669297393 2027.3368764890693,79.80070446263653 2074.3472175536635,73.43272108773363 2121.7391304347834,71.30434782608609 2169.131043315903,73.43272108773363 2216.1413843804976,79.80070446263676 2262.3916540039477,90.35702669297416 2307.509472209963,105.01669447916413 2351.131576855197,123.66167679593764 2392.906748402428,146.14185520875174 2432.498637733761,172.2762325391575 2469.588474235954,201.85439014765552 2503.8776323539614,234.63818210085708 2535.0900359483167,270.3636525825125 2562.974381097873,308.7431611105401 2587.306159451216,349.4676984490577 2607.889465835899,392.20937456905574 2624.5585755717,436.62405862611445 2637.179278788305,482.354149699618 2645.649961004266,529.0314559851004 2649.902421267062,576.2801592581626 2649.902421267062,623.7198407418375 2645.649961004266,670.9685440148996 2637.1792787883046,717.6458503003821 2624.5585755717,763.3759413738854 2607.889465835899,807.7906254309441 2587.306159451216,850.5323015509422 2562.9743810978725,891.2568388894598 2535.090035948316,929.6363474174873 2503.8776323539614,965.3618178991428 2469.5884742359535,998.1456098523443 2432.498637733761,1027.7237674608423 2392.906748402428,1053.858144791248 2351.131576855197,1076.3383232040621 2307.509472209963,1094.9833055208355 2262.391654003947,1109.6429733070256 2216.1413843804976,1120.199295537363 2169.1310433159033,1126.567278912266 2121.7391304347834,1128.6956521739135" stroke-opacity="0.04532443548669107" stroke="#FbdD95"></polygon><polygon fill-opacity="0.05224609375" fill="#EC6" id="element26" points="3179.130434782611,71.30434782608654 3179.130434782611,1128.6956521739135" stroke-opacity="0.10529423071420752" stroke-width="0.7238298613810912" stroke="#2575eD"></polygon><polygon fill-opacity="0.0023193359375" fill="#55B" id="element25" points="4197.92943364015,1127.2852421455989 4159.543034797496,1123.0615372084055 4121.567350649058,1116.0470726556548 4084.204997900817,1106.2792736907045 4047.6553208703613,1093.8102557472946 4012.113327898703,1078.7065464311588 3977.768650896404,1061.0487305664649 3944.8045335752813,1040.931020240909 3913.3968537639234,1018.4607521434663 3883.7131850233764,993.7578148767124 3855.9119025696896,966.9540092992568 3830.1413382736146,938.1923453111355 3806.538989245896,907.6262788341177 3785.2307842306936,875.4188930579666 3766.330411721246,841.7420283210611 3749.93871338257,806.775365267839 3736.143146017546,770.7054661748168 3725.0173149470347,733.7247795601234 3716.6205812936423,696.030613387389 3710.99774526445,657.8240823423894 3708.1788071225205,619.3090347991797 3708.1788071225205,580.6909652008205 3710.99774526445,542.1759176576109 3716.6205812936423,503.96938661261106 3725.0173149470347,466.27522043987665 3736.143146017546,429.2945338251833 3749.93871338257,393.2246347321611 3766.330411721246,358.25797167893904 3785.2307842306936,324.58110694203356 3806.538989245896,292.37372116588244 3830.1413382736146,261.80765468886466 3855.911902569689,233.04599070074335 3883.713185023376,206.24218512328775 3913.396853763923,181.53924785653373 3944.804533575281,159.0689797590909 3977.7686508964034,138.951269433535 4012.113327898703,121.29345356884096 4047.6553208703613,106.1897442527054 4084.204997900817,93.72072630929529 4121.567350649058,83.95292734434474 4159.543034797496,76.93846279159425 4197.92943364015,72.71475785440089 4236.521739130438,71.30434782608722 4275.114044620726,72.71475785440066 4313.50044346338,76.93846279159425 4351.476127611818,83.95292734434474 4388.838480360059,93.72072630929506 4425.3881573905155,106.18974425270517 4460.930150362174,121.29345356884073 4495.274827364473,138.95126943353478 4528.238944685596,159.06897975909067 4559.646624496953,181.5392478565335 4589.3302932375,206.2421851232874 4617.131575691187,233.045990700743 4642.902139987262,261.80765468886443 4666.50448901498,292.3737211658822 4687.812694030183,324.58110694203333 4706.713066539631,358.2579716789388 4723.104764878307,393.2246347321609 4736.900332243331,429.29453382518307 4748.0261633138425,466.2752204398764 4756.422896967234,503.96938661261083 4762.045732996427,542.1759176576106 4764.864671138356,580.6909652008202 4764.864671138356,619.3090347991795 4762.045732996427,657.8240823423891 4756.422896967234,696.0306133873889 4748.0261633138425,733.7247795601234 4736.900332243331,770.7054661748167 4723.104764878307,806.775365267839 4706.713066539631,841.7420283210611 4687.812694030184,875.4188930579667 4666.504489014981,907.6262788341178 4642.902139987263,938.1923453111357 4617.131575691187,966.954009299257 4589.330293237501,993.7578148767127 4559.646624496953,1018.4607521434667 4528.238944685596,1040.9310202409097 4495.274827364473,1061.0487305664656 4460.930150362174,1078.7065464311595 4425.3881573905155,1093.8102557472953 4388.838480360059,1106.2792736907054 4351.476127611818,1116.0470726556557 4313.50044346338,1123.0615372084064 4275.114044620726,1127.2852421455998 4236.521739130438,1128.6956521739135" stroke-opacity="0.02724725380539894" stroke="#ea8"></polygon><circle cx="5293.913" cy="600.0" fill-opacity="0.1923828125" fill="#d5C" id="element24" r="-528.6957" stroke-opacity="0.03281704802066088" stroke-width="7.930099964141846E-4" stroke="#fcB"></circle><circle cx="6351.3043" cy="600.0" fill-opacity="4.8828125E-4" fill="#7B9" id="element23" r="-528.6957" stroke-opacity="0.11830045282840729" stroke="#ada0a7"></circle><polygon fill-opacity="0.16040754318237305" fill="#b7A" id="element22" points="-5222.32762666981,764.8181737087436 -5273.372248089804,541.1770748498088 -5130.348397123251,361.83083839796893 -4900.955950702837,361.830838397969 -4757.932099736283,541.1770748498091 -4808.976721156278,764.8181737087436 -5015.652173913044,864.3478260869567" stroke-opacity="0.060165077447891235" stroke="#d22"></polygon><circle cx="-4486.9565" cy="600.0" fill-opacity="0.005630074094824522" fill="#de5fE6" id="element21" r="-264.3478" stroke-opacity="0.016804574232082814" stroke-width="0.00947216572239995" stroke="#6e2"></circle><polygon fill-opacity="3.231465816497803E-4" fill="#01Cb3e" id="element20" points="-3987.858435422091,862.6856624413449 -4017.0837947154077,857.720074176761 -4045.569421595105,849.5135064467344 -4072.957092775424,838.1691616020314 -4098.902392400576,823.8297013612166 -4123.07904327396,806.6754527567667 -4145.183009983227,786.9221404180096 -4164.936322321983,764.8181737087439 -4182.090570926433,740.641522835359 -4196.430031167249,714.696223210207 -4207.774376011951,687.3085520298879 -4215.980943741978,658.822925150191 -4220.946532006562,629.5975658568746 -4222.608695652174,600.0 -4220.946532006562,570.4024341431254 -4215.980943741978,541.1770748498088 -4207.774376011951,512.6914479701121 -4196.430031167248,485.303776789793 -4182.090570926433,459.35847716464104 -4164.936322321983,435.1818262912561 -4145.183009983226,413.0778595819904 -4123.07904327396,393.3245472432334 -4098.902392400576,376.1702986387835 -4072.957092775424,361.8308383979687 -4045.5694215951044,350.48649355326586 -4017.0837947154077,342.2799258232392 -3987.858435422091,337.31433755865544 -3958.2608695652166,335.65217391304304 -3928.6633037083425,337.31433755865544 -3899.437944415026,342.2799258232393 -3870.952317535329,350.486493553266 -3843.56464635501,361.8308383979688 -3817.619346729858,376.17029863878366 -3793.442695856473,393.32454724323355 -3771.3387291472072,413.07785958199065 -3751.58541680845,435.1818262912563 -3734.4311682040006,459.3584771646413 -3720.091707963186,485.3037767897932 -3708.7473631184826,512.6914479701122 -3700.540795388456,541.1770748498091 -3695.575207123872,570.4024341431256 -3693.91304347826,600.0 -3695.5752071238726,629.5975658568744 -3700.540795388456,658.822925150191 -3708.747363118483,687.3085520298878 -3720.091707963186,714.6962232102068 -3734.4311682040006,740.6415228353587 -3751.5854168084506,764.8181737087436 -3771.3387291472077,786.9221404180092 -3793.442695856473,806.6754527567664 -3817.619346729858,823.8297013612162 -3843.56464635501,838.1691616020311 -3870.9523175353293,849.5135064467339 -3899.437944415026,857.7200741767605 -3928.6633037083425,862.6856624413443 -3958.260869565217,864.3478260869567" stroke-opacity="1.6178030049474046E-4" stroke-width="0.18901497684419155" stroke="#f13"></polygon><circle cx="-3429.5652" cy="600.0" fill-opacity="6.0239428421482444E-5" fill="#D8A" id="element19" r="-264.3478" stroke-opacity="6.40869140625E-4" stroke-width="9.658932685852051E-5" stroke="#2dACbe"></circle><polygon fill-opacity="1.782863400876522E-4" fill="#3CcDAe" id="element18" points="-2978.787454800795,852.6035938773798 -3049.7819979576875,818.4144238191847 -3107.545017974157,764.8181737087434 -3146.944017032902,696.5771055716384 -3164.478221167894,619.7547377828461 -3158.589639394151,541.1770748498091 -3129.8014980438857,467.82608695652175 -3080.671749810747,406.21933127281113 -3015.5657884275975,361.83083839796916 -2940.268564276136,338.6047207196182 -2861.4705661586454,338.6047207196182 -2786.173342007184,361.83083839796916 -2721.0673806240347,406.2193312728111 -2671.9376323908955,467.8260869565217 -2643.1494910406304,541.1770748498091 -2637.260909266887,619.7547377828461 -2654.7951134018795,696.5771055716384 -2694.1941124606246,764.8181737087435 -2751.957132477094,818.4144238191849 -2822.9516756339863,852.60359387738 -2900.869565217391,864.3478260869567" stroke-opacity="0.7194976806640625" stroke-width="8.046369266594411E-4" stroke="#BB6BEa"></polygon><circle cx="-2372.1739" cy="600.0" fill-opacity="0.140625" fill="#f3A" id="element17" r="-264.3478" stroke-opacity="0.15527862310409546" stroke-width="2.714237332344055" stroke="#34a2a5"></circle><polygon fill-opacity="0.02486610598862171" fill="#3a5202" id="element16" points="-2107.826086956521,600.0 -1843.478260869564,335.65217391304327 -1579.1304347826074,600.0 -1843.478260869564,864.3478260869567" stroke-opacity="3.0517578125E-5" stroke-width="0.01003660545393359" stroke="#29ABEb"></polygon><circle cx="-1314.7826" cy="600.0" fill-opacity="0.004363268613815308" fill="#8d2D3f" id="element15" r="-264.3478" stroke-opacity="0.007111006882041693" stroke="#8D8"></circle><polygon fill-opacity="0.0" fill="#839a6a" id="element14" points="-786.0869565217386,335.65217391304327 -786.0869565217386,864.3478260869567" stroke-opacity="0.34375" stroke-width="0.005859375" stroke="#aBCCaf"></polygon><circle cx="-257.3913" cy="600.0" fill-opacity="1.5372226630440584E-7" fill="#E30" id="element13" r="-264.3478" stroke-opacity="0.08510208129882812" stroke="#3DD"></circle><circle cx="271.3043" cy="600.0" fill-opacity="0.0055119991302490234" fill="#ce9" id="element12" r="-264.3478" stroke-opacity="0.0022032497712416443" stroke="#B94"></circle><polygon fill-opacity="0.008118999423459172" fill="#5Fe" id="element11" points="657.0827752117387,822.383542591895 559.5407594888936,709.8140556109335 538.3428536245198,562.3793818825401 600.2192429533104,426.8889885918548 725.5246110610494,346.3601182792978 874.4753889389533,346.3601182792978 999.7807570466924,426.88898859185497 1061.6571463754829,562.3793818825402 1040.459240511109,709.8140556109336 942.9172247882638,822.383542591895 800.0000000000014,864.3478260869567" stroke-opacity="2.0575523376464844E-4" stroke-width="1.0" stroke="#aB1e8b"></polygon><polygon fill-opacity="0.25834622606635094" fill="#C7c51f" id="element10" points="1328.6956521739144,335.65217391304327 1328.6956521739144,864.3478260869567" stroke-opacity="0.0390625" stroke-width="0.04023110866546631" stroke="#06E"></polygon><circle cx="1857.3913" cy="600.0" fill-opacity="0.11124420166015625" fill="#ECf" id="element9" r="-264.3478" stroke-opacity="0.030343055725097656" stroke-width="1.9889907836914062" stroke="#EdEf6F"></circle><polygon fill-opacity="6.961915789815976E-5" fill="#bDf" id="element8" points="2386.0869565217413,335.65217391304327 2386.086956521741,864.3478260869567" stroke-opacity="0.509765625" stroke-width="2.0316243171691895E-4" stroke="#bb1AfB"></polygon><circle cx="2914.7826" cy="600.0" fill-opacity="0.4730224609375" fill="#Ccc" id="element7" r="-264.3478" stroke-opacity="0.037227630615234375" stroke="#1f6"></circle><polygon fill-opacity="0.015625" fill="#789" id="element6" points="3273.5587536132994,802.5021832244951 3183.146472247209,645.9035182702146 3214.5463280430718,467.82608695652164 3353.065979503477,351.5942985052901 3533.890542235657,351.5942985052902 3672.4101936960624,467.8260869565217 3703.810049491925,645.9035182702147 3613.397768125835,802.5021832244952 3443.478260869567,864.3478260869567" stroke-opacity="9.347931481897831E-4" stroke-width="0.0126953125" stroke="#c2a24A"></polygon><polygon fill-opacity="0.0423583984375" fill="#D67" id="element5" points="3950.9027505305376,863.4906275415665 3929.7695396689073,860.9245911668932 3908.9113374405088,856.6663586934968 3888.4634172907436,850.7435463929859 3868.558391828295,843.1945659758991 3849.3253527814754,834.0683754770236 3830.8890337888265,823.424161743752 3813.369001453614,811.3309565866656 3796.878879908522,797.8671890817528 3781.52561391955,783.1201769277558 3767.4087753081694,767.1855601573874 3754.6199171898525,750.1666808750191 3743.2419802169848,732.1739130434787 3733.3487546769093,713.3239466665468 3725.004401933596,693.7390310095053 3718.263038316578,673.5461817657407 3713.1683841557847,652.8763573112326 3709.753480238429,631.8636093892331 3708.040473526821,610.6442137332713 3708.040473526821,589.3557862667283 3709.753480238429,568.1363906107665 3713.1683841557847,547.123642688767 3718.263038316578,526.453818234259 3725.0044019335965,506.26096899049435 3733.3487546769093,486.67605333345284 3743.241980216985,467.826086956521 3754.619917189853,449.8333191249806 3767.40877530817,432.8144398426125 3781.5256139195503,416.8798230722442 3796.8788799085223,402.13281091824723 3813.3690014536146,388.66904341333446 3830.889033788827,376.57583825624806 3849.325352781476,365.93162452297656 3868.558391828296,356.80543402410115 3888.4634172907436,349.2564536070146 3908.911337440509,343.33364130650364 3929.769539668908,339.0754088331073 3950.902750530538,336.509372458434 3972.173913043481,335.6521739130426 3993.4450755564244,336.5093724584341 4014.5782864180546,339.0754088331074 4035.436488646453,343.33364130650375 4055.8844087962184,349.2564536070147 4075.7894342586665,356.80543402410143 4095.0224733054865,365.9316245229769 4113.458792298135,376.57583825624846 4130.978824633347,388.6690434133348 4147.46894617844,402.13281091824757 4162.822212167412,416.8798230722446 4176.939050778792,432.81443984261296 4189.727908897109,449.83331912498113 4201.105845869977,467.8260869565215 4210.999071410052,486.67605333345335 4219.343424153365,506.26096899049486 4226.084787770384,526.4538182342594 4231.179441931176,547.1236426887674 4234.594345848533,568.1363906107669 4236.30735256014,589.3557862667286 4236.30735256014,610.6442137332716 4234.594345848533,631.8636093892334 4231.179441931176,652.8763573112328 4226.084787770384,673.5461817657407 4219.343424153365,693.7390310095053 4210.999071410052,713.3239466665467 4201.105845869976,732.1739130434785 4189.727908897109,750.1666808750189 4176.939050778792,767.1855601573869 4162.822212167412,783.1201769277552 4147.468946178439,797.8671890817523 4130.978824633346,811.330956586665 4113.4587922981345,823.4241617437513 4095.022473305486,834.0683754770228 4075.789434258666,843.1945659758982 4055.884408796218,850.7435463929849 4035.4364886464527,856.6663586934958 4014.578286418054,860.924591166892 3993.445075556424,863.4906275415653 3972.1739130434808,864.3478260869567" stroke-opacity="0.22535979747772217" stroke="#a17"></polygon><circle cx="4500.8696" cy="600.0" fill-opacity="0.1883888654410839" fill="#c8e" id="element4" r="-264.3478" stroke-opacity="0.19458167254924774" stroke="#e5BB8d"></circle><circle cx="5029.5652" cy="600.0" fill-opacity="-0.0" fill="#9d83ac" id="element3" r="-264.3478" stroke-opacity="0.00531768798828125" stroke-width="1.58984375" stroke="#b03"></circle><polygon fill-opacity="2.6129186153411865E-5" fill="#B31" id="element2" points="5450.740922178227,841.4937557594357 5361.812150482502,776.8832211592114 5306.851146996763,681.6879706869428 5295.361168528739,572.3681279709856 5329.328936738726,467.82608695652164 5402.881115915733,386.1381162695789 5503.299866079484,341.4288081538459 5613.22187305096,341.4288081538459 5713.64062321471,386.1381162695789 5787.192802391717,467.82608695652164 5821.160570601704,572.3681279709855 5809.67059213368,681.6879706869427 5754.709588647942,776.8832211592113 5665.780816952216,841.4937557594355 5558.260869565222,864.3478260869567" stroke-opacity="0.46875" stroke-width="0.39554284512996674" stroke="#19f8e9"></polygon><circle cx="6086.9565" cy="600.0" fill-opacity="0.004638671875" fill="#aA0" id="element1" r="-264.3478" stroke-opacity="0.252471923828125" stroke-width="3.4940332557198417E-4" stroke="#4AD"></circle><circle cx="6615.6522" cy="600.0" fill-opacity="0.375" fill="#eB9d9F" id="element0" r="-264.3478" stroke-opacity="0.08725827932357788" stroke-width="3.294876159998239E-5" stroke="#FC8eeb"></circle></svg>